<?xml version="1.0" standalone="no"?>
<!DOCTYPE svg PUBLIC "-//W3C//DTD SVG 20010904//EN"
 "http://www.w3.org/TR/2001/REC-SVG-20010904/DTD/svg10.dtd">
<svg version="1.0" xmlns="http://www.w3.org/2000/svg"
 width="1280.000000pt" height="1208.000000pt" viewBox="0 0 1280.000000 1208.000000"
 preserveAspectRatio="xMidYMid meet">
<g transform="translate(0.000000,1208.000000) scale(0.100000,-0.100000)"
fill="#1e656d" stroke="none">
<path d="M4465 12035 c2 -22 7 -77 10 -123 13 -188 65 -381 154 -567 103 -216
359 -618 464 -730 l66 -70 -4 35 c-2 19 -7 78 -10 130 -15 274 -136 599 -339
913 -61 95 -246 341 -305 407 l-41 45 5 -40z"/>
<path d="M8855 11563 c-72 -7 -247 -45 -345 -74 -292 -90 -567 -230 -808 -411
-303 -228 -492 -441 -508 -574 -10 -79 0 -76 197 58 177 120 253 165 584 349
336 186 557 330 755 491 134 108 198 167 180 166 -8 -1 -33 -3 -55 -5z"/>
<path d="M1104 10878 c83 -70 259 -204 441 -336 441 -318 552 -426 974 -939
100 -123 183 -223 185 -223 1 0 -16 84 -39 188 -80 357 -197 584 -420 807
-241 242 -578 405 -1043 505 -53 11 -106 23 -117 26 -13 3 -6 -6 19 -28z"/>
<path d="M10852 10088 c-318 -40 -698 -209 -1037 -463 -124 -93 -339 -274
-332 -281 8 -9 317 75 494 134 98 33 340 123 538 200 442 171 449 173 720 267
121 42 223 80 228 84 4 4 -61 22 -145 39 -164 34 -306 40 -466 20z"/>
<path d="M6320 9534 c-453 -30 -825 -102 -1235 -239 -633 -211 -1149 -518
-1555 -925 -238 -238 -368 -414 -490 -665 -152 -313 -209 -604 -196 -1005 25
-801 264 -1455 787 -2155 198 -266 384 -474 805 -905 348 -357 456 -480 569
-654 188 -288 255 -596 226 -1031 -6 -99 -14 -190 -17 -200 -4 -17 -25 -24
-118 -42 -198 -39 -302 -91 -344 -173 -38 -73 -16 -165 55 -237 l34 -33 -59 0
c-119 0 -210 -48 -254 -134 -28 -54 -30 -155 -4 -209 23 -48 90 -113 145 -142
l42 -23 -45 -26 c-142 -83 -120 -215 48 -292 112 -51 187 -65 383 -71 192 -6
299 3 483 38 254 50 681 180 867 265 40 18 73 31 73 29 0 -2 -48 -30 -107 -63
-93 -52 -150 -73 -413 -155 -662 -207 -900 -264 -1113 -269 -91 -2 -217 24
-217 44 0 10 107 80 149 98 17 7 31 16 31 20 0 13 -106 23 -157 16 -173 -23
-220 -186 -82 -285 87 -63 229 -99 424 -108 138 -6 346 8 479 33 319 59 812
262 1390 572 245 130 277 159 296 255 15 82 2 237 -40 472 -90 499 -133 970
-112 1234 16 197 42 313 138 596 74 221 90 259 139 331 121 179 282 324 642
583 257 184 344 252 488 381 506 454 818 1067 901 1770 18 150 20 493 5 645
-27 264 -96 563 -187 806 -103 279 -306 642 -484 863 -205 254 -501 519 -725
647 -392 225 -824 333 -1370 343 -121 2 -245 2 -275 0z m436 -304 c512 -41
926 -184 1271 -437 235 -172 492 -459 676 -755 585 -939 582 -2106 -8 -2988
-113 -169 -198 -273 -335 -411 -135 -135 -215 -203 -480 -404 -219 -167 -269
-208 -388 -313 -45 -41 -79 -66 -76 -56 6 17 5 17 -8 4 -37 -36 -153 -188
-216 -282 -226 -340 -349 -664 -408 -1073 -22 -147 -24 -517 -5 -680 31 -272
90 -542 177 -819 19 -60 34 -115 34 -122 0 -7 -33 -29 -72 -47 -73 -34 -359
-137 -381 -137 -7 0 16 16 51 36 35 20 62 38 60 40 -2 2 -63 8 -134 13 -247
19 -480 -6 -1059 -115 -478 -90 -718 -115 -732 -77 -6 16 11 120 22 131 2 3
37 -5 77 -16 111 -33 201 -44 343 -45 192 0 372 47 590 155 139 68 262 153
423 291 92 80 126 103 176 119 33 11 88 32 121 47 65 30 245 138 245 148 0 3
-107 3 -237 -1 -131 -4 -383 -11 -560 -16 -451 -13 -835 7 -949 50 l-27 11 39
40 c44 46 209 189 218 189 3 0 3 -21 1 -47 -5 -48 -5 -48 15 17 138 444 148
723 36 1033 -137 379 -324 642 -851 1202 -383 407 -531 581 -697 820 -312 450
-507 959 -605 1575 -25 163 -26 622 0 760 67 363 191 637 410 911 613 762
2111 1339 3243 1249z m-1761 -8034 c236 -84 669 -95 1044 -26 132 24 61 2
-217 -68 -447 -112 -688 -150 -873 -138 -153 10 -249 46 -249 95 0 35 179 177
210 167 8 -2 47 -16 85 -30z"/>
<path d="M6936 6634 c-45 -38 -94 -92 -117 -128 -56 -86 -217 -411 -268 -539
l-43 -107 -62 48 c-83 65 -158 157 -280 343 -116 175 -186 251 -262 286 -210
96 -436 12 -614 -228 -61 -83 -145 -237 -195 -362 l-32 -79 -56 99 c-108 191
-274 427 -321 458 -19 13 -28 14 -50 3 l-27 -12 22 -12 c25 -13 130 -236 219
-466 l53 -138 -29 -21 c-73 -55 -187 -183 -215 -243 -33 -69 -39 -153 -15
-210 19 -46 80 -112 131 -142 59 -34 185 -64 271 -64 l73 0 11 -42 c6 -24 29
-108 50 -188 21 -80 51 -194 65 -255 15 -60 42 -175 61 -255 89 -370 216 -932
248 -1095 32 -165 64 -358 176 -1035 49 -302 110 -622 120 -633 4 -4 16 61 26
145 26 212 27 856 1 1123 -72 734 -230 1482 -447 2113 -34 99 -46 144 -37 146
7 2 50 12 97 21 220 45 551 162 775 274 79 40 114 53 111 42 -231 -771 -348
-1419 -437 -2416 -30 -328 -33 -808 -6 -985 22 -150 58 -283 101 -373 l34 -72
1 160 c3 519 89 1243 262 2190 43 239 216 1138 249 1299 99 480 234 929 393
1309 25 59 44 107 43 107 -2 0 -38 -30 -80 -66z m-1173 -380 c51 -26 112 -78
277 -239 85 -83 182 -168 214 -189 66 -44 143 -76 181 -76 30 0 30 -1 4 -78
l-21 -62 -41 0 c-71 -1 -242 -26 -487 -74 -314 -61 -612 -108 -621 -99 -4 5
-25 49 -47 99 -22 50 -65 140 -96 202 l-56 111 152 126 c312 258 446 327 541
279z m-783 -679 c33 -98 57 -181 55 -184 -3 -3 -41 -5 -84 -6 -128 0 -142 27
-97 185 32 110 59 191 63 186 2 -2 30 -83 63 -181z"/>
<path d="M10575 7243 c-90 -11 -324 -58 -318 -63 5 -4 89 -30 188 -58 620
-175 1308 -338 1885 -446 208 -39 442 -77 451 -74 5 2 -46 45 -114 97 -195
149 -487 281 -854 385 -270 78 -481 117 -815 151 -133 14 -345 18 -423 8z"/>
<path d="M290 6794 c-51 -14 -205 -78 -260 -109 -31 -17 -42 -13 188 -59 175
-35 440 -105 822 -216 96 -28 283 -78 415 -111 218 -55 253 -61 378 -66 75 -3
137 -3 137 0 0 11 -317 216 -425 276 -193 105 -425 196 -615 241 -122 28 -385
60 -493 59 -51 0 -117 -7 -147 -15z"/>
<path d="M10289 4466 c8 -9 49 -46 92 -82 243 -202 596 -383 949 -485 121 -34
331 -82 440 -99 41 -6 84 -14 95 -17 26 -7 -43 66 -151 157 -174 149 -416 288
-649 375 -181 67 -471 131 -680 150 -38 4 -79 9 -90 12 -18 5 -18 4 -6 -11z"/>
<path d="M2410 3923 c-478 -36 -779 -99 -1035 -218 -190 -88 -335 -209 -335
-280 0 -20 43 -20 60 0 21 25 106 43 273 60 343 34 698 109 946 201 161 61
399 192 374 207 -4 3 -43 12 -85 21 -74 15 -99 17 -198 9z"/>
<path d="M8595 3288 c2 -7 11 -51 20 -98 102 -537 348 -1091 689 -1550 49 -66
90 -119 92 -117 8 8 -19 229 -42 351 -98 504 -354 1005 -700 1368 -57 60 -66
67 -59 46z"/>
<path d="M3955 2925 c-316 -59 -771 -252 -1075 -457 -322 -218 -565 -423 -759
-642 -57 -64 -102 -118 -100 -121 6 -5 279 119 439 200 275 138 694 372 1040
580 305 183 410 232 601 281 80 20 298 64 318 64 3 0 -8 13 -24 30 -16 16 -54
40 -84 51 -73 28 -242 35 -356 14z"/>
</g>
</svg>
