<?xml version="1.0" standalone="no"?>
<!DOCTYPE svg PUBLIC "-//W3C//DTD SVG 20010904//EN"
 "http://www.w3.org/TR/2001/REC-SVG-20010904/DTD/svg10.dtd">
<svg version="1.0" xmlns="http://www.w3.org/2000/svg"
 width="128.000000pt" height="128.000000pt" viewBox="-150 0 1580.000000 1580.000000"
 preserveAspectRatio="xMidYMid meet">
<g class="testfill" transform="translate(0.000000,1280.000000) scale(0.100000,-0.100000)"
fill="#1e656d" stroke="none">
<path d="M8670 10699 c-385 -35 -705 -121 -1005 -269 -349 -172 -580 -362
-778 -641 -97 -136 -185 -342 -223 -521 -25 -112 -25 -400 0 -508 71 -322 252
-606 538 -847 43 -36 78 -70 78 -74 0 -5 -53 -81 -117 -169 -65 -89 -140 -192
-168 -230 -27 -38 -113 -155 -190 -260 -175 -239 -169 -230 -164 -234 2 -2
132 53 289 123 1049 468 970 435 1009 424 20 -6 83 -25 141 -42 305 -91 693
-134 1008 -111 439 31 775 119 1122 295 882 449 1215 1292 804 2036 -122 220
-333 441 -579 606 -278 186 -638 325 -1004 388 -228 39 -551 54 -761 34z"/>
<path d="M4530 9354 c-19 -2 -78 -9 -130 -15 -726 -83 -1314 -460 -1430 -915
-28 -107 -27 -273 0 -372 22 -81 82 -204 128 -268 243 -332 720 -566 1322
-646 56 -7 197 -12 345 -12 279 1 429 18 667 76 l127 31 243 -91 c313 -117
672 -250 721 -268 21 -7 37 -10 35 -5 -2 5 -105 126 -229 268 -125 142 -238
272 -253 290 l-27 32 48 32 c214 145 366 332 434 534 21 61 24 88 24 210 -1
191 -28 282 -134 440 -141 212 -400 400 -711 518 -178 67 -332 107 -555 142
-96 15 -541 29 -625 19z"/>
<path d="M2120 7503 c-14 -2 -74 -10 -135 -19 -131 -18 -270 -51 -420 -101
-533 -176 -961 -538 -1142 -966 -220 -520 -110 -1077 296 -1499 163 -170 328
-291 549 -402 573 -287 1301 -335 1923 -126 l106 35 573 -272 c316 -150 576
-270 578 -268 2 2 -31 55 -75 117 -43 62 -104 151 -136 198 -32 47 -91 132
-131 190 -40 58 -112 163 -160 233 l-88 128 29 21 c15 12 71 64 123 117 359
361 503 804 410 1262 -142 694 -833 1234 -1720 1345 -104 13 -512 18 -580 7z"/>
<path d="M10364 7330 c-704 -63 -1329 -364 -1599 -769 -108 -164 -155 -315
-155 -502 0 -221 72 -402 239 -598 59 -68 194 -187 276 -242 l63 -43 -20 -26
c-11 -14 -57 -68 -103 -120 -45 -52 -167 -191 -270 -308 -103 -118 -184 -216
-181 -219 3 -3 189 63 413 147 224 84 479 179 567 211 l158 59 112 -30 c154
-41 313 -68 501 -85 1134 -105 2197 397 2335 1102 19 96 8 311 -20 398 -48
150 -124 275 -244 403 -300 316 -764 525 -1354 608 -125 17 -582 27 -718 14z"/>
<path d="M6495 6494 c-381 -58 -678 -267 -820 -577 -44 -97 -62 -165 -73 -272
-26 -261 61 -504 251 -702 l40 -42 -50 -83 c-28 -46 -93 -154 -147 -242 -53
-87 -96 -160 -96 -162 0 -12 38 7 247 120 125 68 252 135 281 150 l52 27 88
-30 c292 -97 625 -76 892 59 108 54 181 108 275 205 106 108 171 211 216 345
30 86 33 109 37 241 4 125 1 158 -17 230 -44 172 -139 329 -274 454 -89 83
-145 121 -267 179 -147 71 -263 97 -450 101 -85 2 -168 1 -185 -1z"/>
<path d="M10548 4064 c-313 -75 -467 -410 -322 -696 34 -67 135 -168 202 -202
195 -99 417 -64 567 88 71 73 111 150 133 257 14 66 14 88 4 151 -34 198 -182
358 -373 403 -78 18 -135 18 -211 -1z"/>
<path d="M6913 4055 c-158 -43 -287 -165 -335 -319 -16 -49 -19 -84 -16 -172
3 -105 5 -114 42 -188 181 -366 692 -367 872 -2 37 75 39 86 42 187 4 89 0
121 -17 177 -34 114 -130 226 -238 281 -99 50 -243 64 -350 36z"/>
<path d="M8713 4055 c-158 -43 -287 -165 -335 -319 -16 -49 -19 -84 -16 -172
3 -105 5 -114 42 -188 181 -366 692 -367 872 -2 37 75 39 86 42 187 4 89 0
121 -17 177 -34 114 -130 226 -238 281 -99 50 -243 64 -350 36z"/>
<path d="M3236 4044 c-122 -29 -243 -121 -309 -234 -62 -107 -74 -289 -28
-412 47 -123 157 -232 280 -279 113 -43 282 -35 389 17 74 36 172 131 210 202
201 376 -129 806 -542 706z"/>
<path d="M5075 4042 c-243 -84 -382 -335 -320 -577 38 -147 125 -255 259 -321
75 -37 86 -39 187 -42 136 -5 218 17 306 82 133 97 203 234 203 396 0 212
-136 400 -332 462 -79 24 -233 24 -303 0z"/>
<path d="M1413 4035 c-158 -43 -287 -165 -335 -319 -16 -49 -19 -84 -16 -172
3 -105 5 -114 42 -188 181 -366 692 -367 872 -2 37 75 39 86 42 187 4 89 0
121 -17 177 -34 114 -130 226 -238 281 -99 50 -243 64 -350 36z"/>
<path d="M6553 3154 c-3 -9 -3 -618 1 -1353 7 -1195 9 -1338 23 -1353 14 -16
38 -18 212 -18 162 0 200 3 219 16 l22 15 0 505 c0 329 3 504 10 504 7 0 10
-174 10 -503 0 -475 1 -505 18 -520 16 -15 47 -17 220 -17 198 0 202 0 216 22
13 20 16 215 22 1355 6 1073 5 1335 -6 1348 -9 11 -34 15 -102 15 -74 0 -97
-4 -137 -24 -145 -74 -328 -74 -490 -1 -44 21 -69 25 -143 25 -72 0 -90 -3
-95 -16z"/>
<path d="M7547 3163 c-12 -11 -8 -1151 4 -1158 17 -11 99 47 133 93 l31 44 0
443 0 443 -30 43 c-29 42 -98 98 -121 99 -6 0 -14 -3 -17 -7z"/>
<path d="M8353 3154 c-3 -9 -3 -618 1 -1353 7 -1195 9 -1338 23 -1353 14 -16
38 -18 212 -18 162 0 200 3 219 16 l22 15 0 505 c0 329 3 504 10 504 7 0 10
-174 10 -503 0 -475 1 -505 18 -520 16 -15 47 -17 220 -17 198 0 202 0 216 22
13 20 16 215 22 1355 6 1073 5 1335 -6 1348 -9 11 -34 15 -102 15 -74 0 -97
-4 -137 -24 -145 -74 -328 -74 -490 -1 -44 21 -69 25 -143 25 -72 0 -90 -3
-95 -16z"/>
<path d="M9347 3163 c-12 -11 -8 -1151 4 -1158 17 -11 99 47 133 93 l31 44 0
443 0 443 -30 43 c-29 42 -98 98 -121 99 -6 0 -14 -3 -17 -7z"/>
<path d="M10086 3140 c-26 -17 -60 -51 -76 -77 l-30 -47 0 -431 0 -431 30 -47
c29 -45 95 -97 125 -97 13 0 15 67 15 574 0 316 -4 577 -9 580 -4 3 -29 -8
-55 -24z"/>
<path d="M10170 1825 l0 -1346 25 -24 c24 -25 26 -25 208 -25 171 0 186 1 211
21 l26 20 0 505 c0 441 2 504 15 504 13 0 15 -63 15 -509 0 -461 2 -510 17
-522 12 -11 60 -14 209 -14 180 0 195 1 213 20 19 20 20 43 23 1365 l3 1345
-95 3 c-84 2 -101 0 -153 -24 -33 -14 -98 -33 -145 -41 -107 -18 -213 -6 -317
38 -60 25 -82 29 -162 29 l-93 0 0 -1345z"/>
<path d="M11160 2596 c0 -316 4 -577 9 -580 13 -8 96 48 117 80 44 64 44 69
44 500 0 388 -1 417 -19 452 -10 20 -27 47 -38 58 -21 25 -83 64 -100 64 -10
0 -13 -122 -13 -574z"/>
<path d="M3860 3140 c-12 -22 -10 -1133 2 -1145 21 -21 130 65 154 122 11 26
14 123 14 461 l0 428 -29 46 c-27 43 -59 71 -108 97 -19 9 -24 8 -33 -9z"/>
<path d="M4657 3130 c-26 -17 -60 -50 -77 -77 l-30 -47 0 -428 c0 -338 3 -435
14 -461 24 -57 133 -143 154 -122 4 4 8 260 10 569 2 444 0 565 -10 579 -12
16 -16 16 -61 -13z"/>
<path d="M4744 1808 c7 -1214 9 -1355 23 -1370 14 -16 38 -18 208 -18 169 0
195 2 214 18 l22 17 -1 502 c0 443 1 503 15 503 13 0 15 -60 15 -503 0 -478 1
-505 19 -521 16 -14 42 -16 216 -14 l198 3 18 25 c17 24 18 94 25 1352 6 1068
5 1330 -6 1343 -10 11 -34 15 -107 15 -78 0 -101 -4 -141 -23 -75 -38 -141
-52 -237 -52 -96 0 -162 14 -237 52 -40 20 -62 23 -149 23 l-102 0 7 -1352z"/>
<path d="M5730 2580 c0 -530 1 -580 16 -580 27 0 81 38 116 83 l33 41 0 456 0
456 -33 41 c-35 45 -89 83 -116 83 -15 0 -16 -50 -16 -580z"/>
<path d="M6485 3149 c-36 -20 -86 -73 -106 -111 -18 -35 -19 -63 -19 -458 0
-367 2 -425 16 -453 33 -66 118 -135 150 -123 12 5 14 91 12 578 -3 617 -1
595 -53 567z"/>
<path d="M8285 3149 c-36 -20 -86 -73 -106 -111 -18 -35 -19 -63 -19 -458 0
-367 2 -425 16 -453 33 -66 118 -135 150 -123 12 5 14 91 12 578 -3 617 -1
595 -53 567z"/>
<path d="M1053 3134 c-3 -9 -3 -618 1 -1353 7 -1195 9 -1338 23 -1353 14 -16
38 -18 212 -18 162 0 200 3 219 16 l22 15 0 505 c0 329 3 504 10 504 7 0 10
-174 10 -503 0 -475 1 -505 18 -520 16 -15 47 -17 219 -17 178 0 202 2 216 18
14 15 16 158 23 1354 6 1077 5 1340 -6 1353 -9 11 -34 15 -102 15 -75 0 -96
-4 -138 -25 -143 -73 -329 -72 -489 0 -44 21 -69 25 -143 25 -72 0 -90 -3 -95
-16z"/>
<path d="M2047 3143 c-12 -11 -8 -1151 4 -1158 17 -11 99 47 133 93 l31 44 0
443 0 443 -30 43 c-29 42 -98 98 -121 99 -6 0 -14 -3 -17 -7z"/>
<path d="M2778 3121 c-27 -17 -57 -48 -72 -74 l-26 -44 0 -437 c0 -479 -2
-463 62 -522 37 -36 92 -66 102 -57 3 4 6 267 6 585 0 468 -2 578 -13 578 -7
0 -34 -13 -59 -29z"/>
<path d="M2864 3139 c-4 -7 -4 -613 0 -1348 l8 -1336 21 -22 c20 -22 26 -23
207 -23 174 0 189 1 214 21 l26 20 0 506 c0 399 3 504 13 501 9 -4 13 -116 14
-509 3 -500 3 -504 24 -521 19 -16 45 -18 209 -18 164 0 190 2 209 17 l20 18
3 1350 3 1350 -110 0 c-97 -1 -117 -4 -171 -28 -129 -56 -297 -54 -430 7 -48
22 -70 26 -155 26 -63 0 -100 -4 -105 -11z"/>
<path d="M985 3129 c-36 -20 -86 -73 -106 -111 -18 -35 -19 -63 -19 -458 0
-367 2 -425 16 -453 33 -66 118 -135 150 -123 12 5 14 91 12 578 -3 617 -1
595 -53 567z"/>
</g>
</svg>
