<?xml version="1.0" standalone="no"?>
<!DOCTYPE svg PUBLIC "-//W3C//DTD SVG 20010904//EN"
 "http://www.w3.org/TR/2001/REC-SVG-20010904/DTD/svg10.dtd">
<svg version="1.0" xmlns="http://www.w3.org/2000/svg"
 width="120.000000pt" height="50.000000pt" viewBox="100 -50 1000.000000 600.000000"
 preserveAspectRatio="xMidYMid meet">

<g transform="translate(0.000000,544.000000) scale(0.100000,-0.100000)"
fill="#000000" stroke="none">
<path  d="M8046 5267 l-259 -162 -224 -395 c-123 -217 -270 -476 -326 -575 -56
-99 -102 -186 -102 -193 0 -16 237 -154 247 -144 6 7 103 176 640 1122 289
508 290 510 286 510 -2 0 -120 -73 -262 -163z"/>
<path fill="#7FDD4C" stroke="#7FDD4C" style="color: rgb(0, 0, 0);" stroke-width="133" stroke-linejoin="round" 
 d="M6921 5264 c-27 -44 -99 -155 -160 -249 -60 -93 -131 -203 -157 -244
l-48 -74 -57 -286 c-32 -157 -101 -500 -154 -761 -53 -261 -148 -729 -210
-1040 -138 -683 -377 -1865 -444 -2195 -27 -132 -48 -242 -45 -244 2 -2 65
-16 139 -31 95 -19 138 -24 140 -16 2 6 40 193 84 416 173 868 224 1115 231
1123 6 7 643 -569 1325 -1198 55 -51 172 -158 260 -239 l160 -146 35 39 c19
22 62 70 95 106 l59 67 -55 51 c-95 90 -422 390 -1287 1182 l-383 350 58 55
c71 67 732 710 1017 990 116 113 233 228 262 255 286 276 635 615 794 772 107
105 215 211 240 234 25 23 214 207 420 408 206 201 410 400 452 440 43 41 76
76 75 78 -2 2 -142 -46 -312 -107 -169 -60 -310 -110 -312 -110 -7 0 -162
-148 -423 -405 -124 -121 -405 -396 -625 -610 -220 -214 -479 -466 -575 -560
-214 -209 -512 -500 -720 -701 -85 -83 -222 -216 -305 -297 -82 -80 -151 -144
-152 -143 -3 3 63 334 230 1161 36 176 113 559 172 850 59 292 136 670 170
840 35 171 62 312 60 314 -2 2 -26 -32 -54 -75z"/>
<path fill="#7FDD4C" stroke="#7FDD4C" style="color: rgb(0, 0, 0);" stroke-width="133" stroke-linejoin="round" 
 d="M6010 4990 c-96 -110 -180 -210 -187 -222 -7 -13 -33 -124 -57 -248
-216 -1094 -298 -1508 -302 -1523 -5 -15 -13 -10 -52 30 -223 232 -578 294
-867 151 -144 -71 -283 -215 -351 -361 -73 -160 -83 -372 -26 -538 117 -341
447 -552 795 -509 82 10 217 50 244 72 27 21 29 -1 11 -90 -11 -52 -17 -96
-15 -98 8 -8 269 -56 274 -50 5 5 41 181 302 1506 84 421 169 853 191 960 149
746 220 1113 217 1116 -2 2 -81 -86 -177 -196z m-1060 -2011 c139 -22 278
-118 342 -236 81 -148 76 -348 -11 -485 -100 -158 -292 -246 -473 -218 -74 11
-160 44 -203 78 l-25 20 41 6 c108 17 119 126 15 154 -50 14 -146 -11 -146
-38 0 -23 -18 -7 -38 33 -118 236 -22 528 212 642 62 31 135 50 201 54 11 0
49 -4 85 -10z"/>
<path d="M10472 4411 l-492 -167 -173 -119 c-94 -65 -215 -149 -267 -185 -73
-52 -1585 -1099 -1634 -1132 -9 -6 133 -230 154 -243 4 -2 83 49 176 113 93
65 513 356 934 647 1804 1247 1821 1258 1800 1254 -3 0 -227 -76 -498 -168z"/>
<path d="M5154 4288 l-220 -223 -63 -203 c-35 -112 -61 -205 -60 -206 9 -7
273 -85 277 -82 7 8 292 920 290 928 -2 5 -102 -92 -224 -214z"/>
<path d="M10610 3504 c-179 -36 -473 -94 -654 -129 -181 -35 -331 -66 -333
-69 -4 -3 46 -277 52 -284 1 -1 69 11 151 28 82 16 289 56 459 89 171 33 522
101 780 151 259 50 478 94 488 98 20 8 -552 183 -593 181 -14 -1 -171 -30
-350 -65z"/>
<path d="M3685 3260 c-122 -59 -368 -151 -520 -195 -468 -135 -934 -178 -1470
-134 -187 15 -401 45 -760 106 -310 53 -341 56 -505 57 l-175 1 -65 -31 c-144
-69 -207 -194 -180 -358 31 -193 198 -439 520 -770 450 -461 826 -742 1385
-1034 245 -129 270 -140 515 -228 628 -225 1203 -382 1740 -473 170 -29 539
-78 630 -83 l45 -3 12 140 c7 77 10 141 8 144 -3 2 -78 12 -167 22 -442 49
-948 149 -1375 271 -43 12 -58 28 -27 28 33 0 274 102 389 166 112 61 315 197
315 211 0 3 -35 49 -77 102 -43 52 -83 102 -89 109 -9 12 -23 5 -83 -37 -407
-290 -883 -405 -1251 -302 -188 53 -582 248 -871 432 -510 324 -1143 935
-1289 1244 -68 143 -64 157 40 163 88 5 191 -7 525 -63 560 -94 798 -118 1180
-118 302 0 477 14 733 58 508 88 1024 289 1481 576 l46 29 -300 -1 -300 -1
-60 -28z"/>
<path 
  d="M9570 2770 c-413 -55 -427 -58 -500 -92 -41 -20 -408 -201 -815 -403
-407 -202 -804 -398 -882 -437 -79 -38 -143 -72 -143 -76 0 -4 29 -64 63 -134
l63 -127 449 223 c248 122 664 328 925 457 969 479 1304 647 1285 647 -11 0
-211 -26 -445 -58z"/>
<path d="M10837 2675 c-455 -56 -830 -105 -833 -107 -4 -4 26 -278 31 -286 2
-3 175 18 1475 178 497 61 906 112 907 114 6 6 -707 206 -729 205 -13 -1 -396
-47 -851 -104z"/>
<path d="M9281 1963 c-6 -65 -14 -130 -17 -145 -7 -34 -61 -24 581 -98 487
-56 758 -88 2070 -240 286 -33 554 -64 595 -69 41 -5 76 -9 77 -7 2 2 -75 36
-552 244 -93 40 -210 92 -260 114 -89 39 -94 40 -420 79 -312 37 -2052 239
-2059 239 -1 0 -8 -53 -15 -117z"/>
<path d="M8518 1523 c-20 -76 -35 -139 -34 -141 2 -2 131 -39 287 -82 156 -43
619 -171 1029 -285 1546 -429 1753 -485 1756 -482 2 2 -89 65 -203 139 -115
74 -292 190 -394 257 -172 113 -194 124 -290 151 -416 117 -2094 580 -2103
580 -6 0 -28 -62 -48 -137z"/>
<path d="M8150 1057 c-4 -12 -31 -71 -59 -131 -29 -60 -48 -113 -44 -117 4 -4
199 -94 433 -199 234 -106 551 -250 706 -320 154 -70 291 -131 303 -135 27 -8
31 -16 -161 273 l-115 173 -99 46 c-104 47 -447 202 -767 346 -183 83 -188 85
-197 64z"/>
<path d="M6573 833 c-73 -25 -133 -49 -133 -55 0 -18 245 -758 251 -758 3 0
35 115 71 255 l66 254 -55 168 c-30 93 -57 171 -61 174 -4 4 -67 -14 -139 -38z"/>
</g>
</svg>
