<?xml version="1.0" standalone="no"?>
<!DOCTYPE svg PUBLIC "-//W3C//DTD SVG 20010904//EN"
 "http://www.w3.org/TR/2001/REC-SVG-20010904/DTD/svg10.dtd">
<svg version="1.0" xmlns="http://www.w3.org/2000/svg"
 width="880.000000pt" height="869.000000pt" viewBox="-250 -250 1780.000000 1769.000000"
 preserveAspectRatio="xMidYMid meet">
<g transform="translate(0.000000,1269.000000) scale(0.100000,-0.100000)"
fill="#1e656d" stroke="none">
<path d="M1301 12674 c-228 -61 -382 -295 -344 -520 40 -230 232 -394 462
-394 312 0 534 284 455 585 -62 241 -329 395 -573 329z"/>
<path d="M3860 12680 c-248 -43 -419 -280 -380 -527 43 -266 313 -447 567
-379 89 24 145 57 214 125 95 96 138 197 139 326 0 215 -155 405 -369 451 -72
15 -103 16 -171 4z"/>
<path d="M826 11595 c-101 -28 -178 -75 -261 -159 -128 -129 -133 -141 -365
-950 -110 -385 -200 -713 -200 -730 0 -56 21 -107 59 -145 110 -110 289 -49
337 116 9 32 92 321 184 643 l167 585 87 3 c50 2 86 -1 86 -7 0 -5 -41 -177
-90 -383 -227 -936 -430 -1777 -430 -1782 0 -3 103 -6 230 -6 l230 0 2 -802
c3 -801 3 -803 25 -843 45 -84 118 -129 208 -129 65 1 111 19 158 63 66 60 62
5 67 896 l5 810 97 3 98 3 2 -808 3 -808 28 -48 c92 -156 320 -148 401 14 l26
53 0 798 0 798 231 0 c215 0 230 1 225 18 -8 27 -516 2150 -516 2157 0 3 39 4
87 3 l87 -3 183 -640 c141 -492 189 -649 210 -679 40 -55 84 -76 163 -76 56 0
73 5 111 29 25 16 55 44 66 62 11 19 103 321 203 672 l183 637 78 0 79 0 2
-1872 c3 -1769 4 -1875 21 -1911 99 -211 382 -225 493 -25 l29 53 3 1083 2
1082 100 0 100 0 2 -1082 3 -1083 29 -53 c111 -200 394 -186 493 25 17 36 18
142 21 1911 l2 1873 86 -3 87 -3 149 -545 c201 -734 192 -704 238 -754 22 -23
54 -50 72 -60 18 -10 141 -48 273 -84 l240 -67 5 -1170 c5 -1080 6 -1172 22
-1201 72 -131 259 -136 333 -10 l25 43 0 596 0 597 75 0 75 0 0 -579 c0 -405
3 -588 11 -612 55 -164 271 -186 351 -36 l23 42 3 1088 2 1087 70 0 69 0 3
-382 c3 -383 3 -383 26 -416 66 -91 197 -80 242 21 18 39 20 69 20 463 0 262
-4 443 -11 480 -31 167 -153 294 -326 339 -47 12 -143 15 -533 15 -545 0 -727
11 -741 44 -5 12 -93 314 -195 671 -106 370 -200 680 -218 720 -84 179 -228
305 -403 350 -86 23 -1361 22 -1447 0 -137 -36 -262 -126 -345 -250 -63 -95
-73 -121 -196 -545 -57 -195 -104 -352 -104 -349 -3 26 -207 715 -225 761 -77
190 -234 335 -416 383 -77 21 -1109 20 -1184 0z"/>
<path d="M6187 10610 c-58 -15 -108 -44 -154 -91 -60 -60 -85 -119 -91 -209
-6 -102 22 -175 92 -246 71 -70 144 -98 246 -92 92 6 157 36 219 103 63 68 85
124 85 215 0 129 -64 234 -177 290 -69 33 -157 45 -220 30z"/>
<path d="M9710 10160 c-337 -41 -635 -185 -870 -420 -174 -174 -284 -350 -359
-575 -54 -162 -74 -287 -74 -465 -1 -176 19 -299 74 -465 74 -221 184 -400
354 -570 212 -212 460 -344 764 -407 151 -31 402 -31 551 1 313 66 572 209
787 434 191 201 313 435 375 721 31 145 31 427 0 572 -66 306 -188 532 -406
750 -219 218 -459 347 -755 404 -122 24 -331 33 -441 20z"/>
<path d="M9083 6844 c-9 -23 15 -533 32 -697 54 -510 175 -788 386 -887 119
-55 175 -65 379 -64 275 0 377 32 503 156 55 54 77 85 117 170 109 229 169
614 173 1124 l2 209 -793 2 c-717 2 -793 1 -799 -13z"/>
<path d="M8525 6843 c-189 -16 -411 -70 -584 -141 -224 -93 -404 -215 -565
-383 -104 -108 -124 -137 -1186 -1746 l-325 -492 -1035 -3 -1035 -3 -85 -30
c-198 -69 -343 -215 -407 -409 -33 -102 -37 -254 -9 -356 47 -172 179 -332
336 -408 154 -75 103 -72 1362 -72 962 0 1137 2 1218 15 187 31 362 111 469
215 40 39 189 252 516 742 l460 687 103 1 102 0 0 -2230 0 -2230 2454 0 2453
0 7 62 c24 235 27 574 24 2928 l-4 2485 -26 125 c-91 445 -303 766 -654 992
-235 151 -622 258 -935 258 l-96 0 -6 -247 c-23 -930 -239 -1514 -631 -1707
-81 -40 -195 -71 -298 -81 l-68 -7 0 -1192 0 -1192 43 -21 c57 -28 144 -107
182 -168 74 -117 101 -261 71 -388 -41 -176 -156 -309 -323 -374 -91 -36 -246
-38 -337 -4 -178 64 -308 223 -336 408 -30 197 68 402 242 510 l58 36 0 1192
0 1192 -89 6 c-162 10 -315 77 -439 192 -294 272 -446 796 -469 1618 l-6 227
-56 -2 c-31 -1 -74 -3 -96 -5z"/>
</g>
</svg>
