<?xml version="1.0" standalone="no"?>
<!DOCTYPE svg PUBLIC "-//W3C//DTD SVG 20010904//EN"
 "http://www.w3.org/TR/2001/REC-SVG-20010904/DTD/svg10.dtd">
<svg version="1.0" xmlns="http://www.w3.org/2000/svg"
 width="1177.000000pt" height="1280.000000pt" viewBox="0 0 1177.000000 1280.000000"
 preserveAspectRatio="xMidYMid meet">
<g transform="translate(0.000000,1280.000000) scale(0.100000,-0.100000)"
fill="#000000" stroke="none">
<path d="M2645 11364 c-775 -679 -1643 -1438 -1927 -1687 l-517 -452 2 -4425
2 -4425 22 -40 c28 -52 78 -100 125 -119 34 -14 479 -16 4375 -16 l4338 0 51
24 c54 25 93 68 119 129 13 32 15 232 15 1731 l0 1695 36 83 c20 46 44 101 54
123 10 22 45 103 78 180 33 77 92 212 130 300 38 88 135 311 214 495 80 184
381 877 668 1540 609 1405 789 1821 875 2020 35 80 60 148 57 152 -16 16 -797
347 -803 340 -4 -4 -145 -326 -314 -717 -364 -841 -507 -1171 -622 -1435 -47
-107 -111 -256 -143 -330 -32 -74 -97 -223 -144 -330 l-85 -195 -1 3195 c0
2049 -4 3207 -10 3229 -16 56 -57 106 -113 137 l-52 29 -2510 2 -2510 3 -1410
-1236z"/>
<path d="M11278 9953 c-9 -2 -18 -10 -21 -16 -3 -7 -98 -226 -212 -487 -114
-261 -208 -481 -209 -488 -1 -11 292 -147 300 -139 2 2 385 883 419 964 13 31
12 35 -18 80 -43 64 -101 93 -182 92 -33 -1 -67 -3 -77 -6z"/>
<path d="M11357 8545 l-45 -104 85 -36 c47 -20 86 -35 87 -33 8 10 86 201 84
203 -2 1 -40 18 -85 38 l-81 35 -45 -103z"/>
<path d="M11190 7573 c-233 -538 -434 -1001 -446 -1029 l-23 -52 76 -31 c41
-18 77 -30 80 -28 3 4 557 1276 889 2043 4 9 -124 74 -146 74 -4 0 -197 -440
-430 -977z"/>
<path d="M10741 6859 c-78 -37 -121 -64 -119 -71 3 -7 22 -68 43 -135 21 -68
41 -123 44 -123 4 0 146 319 169 381 6 15 -9 10 -137 -52z"/>
</g>
</svg>
