<?xml version="1.0" standalone="no"?>
<!DOCTYPE svg PUBLIC "-//W3C//DTD SVG 20010904//EN"
 "http://www.w3.org/TR/2001/REC-SVG-20010904/DTD/svg10.dtd">
<svg version="1.0" xmlns="http://www.w3.org/2000/svg"
 width="1280.000000pt" height="1280.000000pt" viewBox="-105 -100 1480.000000 1480.000000"
 preserveAspectRatio="xMidYMid meet">
<g transform="translate(0.000000,1280.000000) scale(0.100000,-0.100000)"
fill="#1e656d" stroke="none">
<path d="M2830 11770 c-177 -24 -339 -138 -422 -296 -74 -140 -68 325 -68
-4974 0 -5299 -6 -4834 68 -4974 68 -131 186 -227 337 -278 l70 -23 3585 0
3585 0 70 23 c151 51 269 147 337 278 74 140 68 -192 68 3766 l0 3567 -1112 3
-1113 4 -85 23 c-238 65 -430 213 -524 405 -75 153 -70 60 -73 1339 l-4 1147
-2332 -1 c-1283 -1 -2357 -5 -2387 -9z"/>
<path d="M7950 10672 c0 -1205 -3 -1149 60 -1244 36 -55 116 -112 197 -141 58
-22 64 -22 1158 -25 l1100 -3 -1250 1254 c-687 690 -1253 1254 -1257 1255 -5
1 -8 -492 -8 -1096z"/>
</g>
</svg>
