<?xml version="1.0" standalone="no"?>
<!DOCTYPE svg PUBLIC "-//W3C//DTD SVG 20010904//EN"
 "http://www.w3.org/TR/2001/REC-SVG-20010904/DTD/svg10.dtd">
<svg version="1.0" xmlns="http://www.w3.org/2000/svg"
 width="150.000000pt" height="150.000000pt" viewBox="0 0 1280.000000 896.000000"
 preserveAspectRatio="xMidYMid meet">
<g transform="translate(0.000000,896.000000) scale(0.100000,-0.100000)"
fill="#1e656d" stroke="none">
<path d="M3642 7476 c-142 -84 -236 -159 -383 -306 -232 -231 -422 -492 -590
-814 l-67 -128 -34 58 c-19 33 -81 141 -137 242 l-103 182 -32 -19 c-17 -10
-123 -69 -236 -131 -113 -62 -225 -123 -248 -137 l-44 -25 75 -33 c200 -86
415 -244 652 -476 l140 -138 88 122 c279 391 714 819 949 932 37 18 76 35 87
38 19 5 19 6 -5 71 -42 117 -50 220 -30 413 10 92 20 176 22 186 8 26 -4 22
-104 -37z"/>
<path d="M4720 6970 l0 -470 2730 0 2730 0 0 470 0 470 -2730 0 -2730 0 0
-470z"/>
<path d="M3657 5936 c-130 -74 -235 -155 -370 -286 -235 -227 -458 -533 -635
-872 l-51 -98 -39 68 c-21 37 -83 145 -137 239 l-97 173 -72 -40 c-39 -22
-164 -91 -278 -153 -194 -105 -228 -127 -195 -127 7 0 56 -20 107 -46 192 -93
377 -232 596 -446 l151 -148 38 57 c146 221 441 558 651 744 153 136 246 204
355 258 l96 47 -23 62 c-42 112 -50 218 -30 409 10 93 20 176 22 186 8 25 -3
22 -89 -27z"/>
<path d="M4720 4880 l0 -470 2730 0 2730 0 0 470 0 470 -2730 0 -2730 0 0
-470z"/>
<path d="M3480 4022 c-162 -91 -275 -174 -446 -329 -97 -88 -272 -279 -349
-383 -31 -41 -59 -76 -63 -78 -14 -5 -207 322 -278 473 -31 63 -39 75 -49 62
-6 -8 -26 -140 -44 -293 l-34 -279 42 -105 c23 -58 56 -136 74 -174 l33 -70
-69 -120 c-38 -65 -86 -153 -107 -195 -21 -42 -72 -134 -114 -205 l-76 -128
55 -112 c52 -106 84 -206 85 -271 l1 -30 22 29 c44 58 391 492 435 544 l45 54
86 -85 c110 -107 199 -183 331 -279 98 -71 314 -208 329 -208 4 0 17 45 30
100 15 67 38 133 69 195 l48 94 -40 18 c-55 25 -139 85 -225 162 -82 73 -311
329 -311 348 0 16 232 219 339 296 85 62 259 157 286 157 26 0 26 20 1 84 -59
147 -68 318 -31 600 9 65 15 132 13 147 l-3 29 -85 -48z"/>
<path d="M4720 2790 l0 -470 2730 0 2730 0 0 470 0 470 -2730 0 -2730 0 0
-470z"/>
</g>
</svg>
