<?xml version="1.0" standalone="no"?>
<!DOCTYPE svg PUBLIC "-//W3C//DTD SVG 20010904//EN"
 "http://www.w3.org/TR/2001/REC-SVG-20010904/DTD/svg10.dtd">
<svg version="1.0" xmlns="http://www.w3.org/2000/svg"
 width="128.000000pt" height="128.000000pt" viewBox="-150 100 1580.000000 645.000000"
 preserveAspectRatio="xMidYMid meet">
<g transform="translate(0.000000,645.000000) scale(0.100000,-0.100000)"
fill="#000000" stroke="none">
<path d="M6750 6435 c-190 -38 -406 -153 -500 -266 -128 -152 -190 -331 -190
-552 0 -272 63 -418 304 -697 134 -155 180 -220 216 -305 22 -53 25 -74 24
-170 0 -60 -13 -222 -28 -360 -15 -143 -29 -345 -33 -470 l-6 -221 -96 -22
c-53 -12 -357 -82 -676 -156 -319 -74 -800 -184 -1070 -245 -2508 -565 -3042
-687 -3740 -851 -143 -34 -324 -74 -402 -90 -289 -59 -410 -120 -491 -248
-141 -221 -21 -477 256 -547 31 -8 188 -28 347 -44 413 -43 2868 -295 4005
-411 272 -28 711 -73 975 -100 264 -27 752 -76 1085 -109 1693 -169 2352 -234
2735 -271 231 -22 557 -54 725 -70 168 -16 620 -59 1005 -95 493 -45 756 -74
890 -97 241 -41 398 -44 487 -9 72 28 161 107 194 173 70 137 22 336 -114 473
-31 31 -75 68 -98 81 -74 44 -915 412 -2304 1009 -1624 698 -2505 1097 -3292
1491 l-247 124 -7 37 c-11 61 4 383 31 644 47 447 45 502 -20 644 -41 88 -105
177 -240 334 -132 153 -186 235 -222 337 -25 73 -27 91 -28 234 0 124 4 167
19 215 46 146 121 253 231 325 180 117 381 163 544 125 145 -35 321 -162 426
-309 58 -83 135 -240 176 -361 19 -55 35 -102 37 -104 2 -4 152 40 152 45 0 1
-14 44 -30 96 -43 132 -148 341 -219 435 -215 285 -515 417 -811 358z m83
-3296 c836 -419 1695 -808 3417 -1549 1258 -541 2095 -906 2203 -961 55 -28
121 -98 153 -161 59 -115 29 -229 -73 -279 -68 -34 -207 -32 -398 5 -97 18
-368 48 -880 96 -1497 141 -4309 418 -5890 580 -269 27 -710 72 -980 100 -803
82 -996 102 -3219 330 -866 89 -863 89 -943 163 -55 51 -72 100 -54 165 34
129 139 190 426 247 72 14 339 75 595 135 685 160 934 217 2500 570 1511 341
2870 652 2918 669 1 1 102 -49 225 -110z"/>
</g>
</svg>
