<?xml version="1.0" standalone="no"?>
<!DOCTYPE svg PUBLIC "-//W3C//DTD SVG 20010904//EN"
 "http://www.w3.org/TR/2001/REC-SVG-20010904/DTD/svg10.dtd">
<svg version="1.0" xmlns="http://www.w3.org/2000/svg"
 width="1280.000000pt" height="1180.000000pt" viewBox="0 0 1280.000000 1180.000000"
 preserveAspectRatio="xMidYMid meet">
<g transform="translate(0.000000,1180.000000) scale(0.100000,-0.100000)"
fill="#000000" stroke="none">
<path d="M3775 11772 c-158 -72 -243 -131 -314 -217 -81 -98 -191 -309 -361
-690 -161 -362 -171 -379 -305 -535 -116 -134 -154 -186 -186 -255 -35 -73
-36 -105 -7 -273 18 -110 20 -136 10 -197 -46 -284 -71 -380 -147 -575 -85
-219 -276 -651 -311 -707 -18 -28 -109 -127 -202 -220 -239 -237 -240 -241
-206 -546 27 -243 22 -277 -90 -600 -151 -434 -250 -678 -377 -927 -42 -84
-81 -142 -143 -215 -47 -55 -98 -122 -113 -150 -31 -55 -33 -97 -23 -410 6
-163 10 -148 -150 -555 -51 -128 -111 -290 -135 -359 -79 -229 -160 -382 -433
-811 -86 -135 -162 -261 -169 -280 -21 -60 -16 -148 12 -208 28 -61 31 -109
11 -191 -8 -31 -17 -96 -21 -146 -9 -126 -40 -331 -82 -529 l-35 -169 17 -127
c35 -277 102 -502 217 -730 97 -193 181 -311 328 -463 200 -207 391 -343 685
-487 99 -49 243 -112 320 -142 l140 -53 3805 -3 3805 -2 95 27 c441 125 793
392 1077 818 133 199 137 209 342 891 203 675 227 755 706 2329 864 2838 1230
4091 1255 4295 38 310 -32 585 -198 779 -71 83 -194 174 -317 236 -61 30 -114
55 -118 55 -4 0 -7 -54 -7 -119 0 -111 -3 -129 -39 -248 -37 -119 -65 -211
-191 -628 -27 -88 -71 -234 -99 -325 -27 -91 -66 -219 -86 -285 -20 -66 -373
-1231 -785 -2590 -412 -1358 -765 -2524 -785 -2590 -20 -66 -59 -193 -86 -282
-27 -90 -72 -238 -100 -330 -28 -93 -66 -217 -84 -278 -19 -60 -43 -149 -54
-197 -55 -236 -176 -402 -356 -488 -88 -42 -139 -56 -251 -70 -44 -6 -1560
-10 -3846 -10 -3729 -1 -3774 -1 -3850 19 -269 69 -507 250 -615 467 -42 85
-47 103 -51 178 -3 52 0 98 8 121 18 54 86 124 150 154 l55 26 3545 6 c3224 5
3556 7 3665 22 515 71 707 243 949 854 32 82 171 528 336 1079 155 516 387
1290 515 1719 269 897 518 1731 956 3195 171 569 337 1116 369 1215 110 335
151 546 152 780 0 195 -24 317 -93 462 -78 163 -234 308 -426 394 -85 38 -266
93 -358 108 -53 9 -804 11 -3060 9 -2879 -3 -2993 -4 -3075 -22 -156 -34 -503
-25 -705 20 -11 2 -47 -8 -80 -24z m4215 -1270 c48 -23 73 -74 65 -132 -18
-133 -106 -458 -235 -865 -45 -143 -101 -328 -125 -411 -49 -172 -64 -207
-102 -231 -25 -17 -82 -18 -797 -21 -690 -2 -774 -1 -819 14 -88 29 -150 102
-149 175 1 60 379 1254 427 1349 13 25 38 59 57 77 70 67 14 63 868 63 718 0
778 -1 810 -18z m-714 -2271 c96 -43 113 -124 61 -276 -573 -1650 -997 -3042
-1141 -3742 -93 -449 -86 -638 20 -618 l34 6 -7 -48 c-4 -26 -7 -81 -8 -122
l0 -74 -1170 7 c-643 4 -1171 9 -1173 10 -6 6 20 201 29 218 8 15 17 17 48 12
36 -6 43 -3 85 36 99 91 216 278 377 600 423 848 829 2023 953 2763 82 484 44
783 -106 856 -48 23 -129 28 -186 12 -31 -9 -33 -9 -26 12 7 23 107 309 119
340 6 15 27 17 214 18 113 1 312 5 441 9 129 4 496 6 815 3 530 -4 583 -6 621
-22z"/>
</g>
</svg>
