<?xml version="1.0" standalone="no"?>
<!DOCTYPE svg PUBLIC "-//W3C//DTD SVG 20010904//EN"
 "http://www.w3.org/TR/2001/REC-SVG-20010904/DTD/svg10.dtd">
<svg version="1.0" xmlns="http://www.w3.org/2000/svg"
 width="1280.000000pt" height="1280.000000pt" viewBox="0 0 1280.000000 1280.000000"
 preserveAspectRatio="xMidYMid meet">
<g transform="translate(0.000000,1280.000000) scale(0.100000,-0.100000)"
fill="#1e656d" stroke="none">
<path d="M7355 11854 c-689 -33 -1412 -174 -2185 -426 -447 -146 -737 -266
-1209 -503 -492 -246 -692 -378 -939 -619 -226 -220 -302 -327 -456 -635 -99
-196 -130 -292 -146 -449 -24 -224 -8 -422 54 -682 71 -298 230 -517 466 -640
123 -63 224 -84 415 -83 410 2 838 130 1135 341 163 115 233 224 275 425 18
85 35 138 64 195 65 122 191 257 356 378 413 302 1100 497 1605 456 170 -14
270 -39 389 -98 75 -37 110 -62 169 -121 73 -73 74 -75 69 -116 -8 -59 -77
-192 -140 -268 -132 -159 -224 -220 -1330 -886 -845 -508 -940 -570 -1242
-797 -158 -119 -445 -360 -569 -477 -342 -324 -663 -752 -805 -1076 -101 -230
-125 -340 -126 -563 0 -158 3 -186 28 -290 15 -63 37 -144 49 -180 108 -329
369 -574 744 -699 267 -89 615 -95 913 -16 339 90 708 339 819 552 51 98 67
166 82 343 25 293 49 414 102 510 112 201 465 535 858 811 254 179 382 258
920 569 805 464 1079 645 1445 954 265 224 419 389 554 596 265 405 441 893
482 1333 15 160 6 505 -16 642 -48 305 -124 508 -256 685 -335 454 -890 710
-1769 816 -119 15 -638 26 -805 18z"/>
<path d="M4405 3259 c-196 -20 -301 -51 -500 -149 -154 -75 -328 -185 -419
-264 -121 -104 -225 -259 -279 -415 -39 -114 -54 -323 -31 -446 9 -44 20 -102
24 -130 13 -71 80 -201 138 -265 96 -107 376 -287 693 -444 253 -126 408 -180
567 -198 568 -63 1280 385 1413 887 29 110 36 324 15 460 -53 350 -208 594
-472 745 -141 80 -397 153 -684 194 -110 16 -335 37 -367 35 -10 -1 -54 -5
-98 -10z"/>
</g>
</svg>
