<?xml version="1.0" standalone="no"?>
<!DOCTYPE svg PUBLIC "-//W3C//DTD SVG 20010904//EN"
 "http://www.w3.org/TR/2001/REC-SVG-20010904/DTD/svg10.dtd">
<svg version="1.0" xmlns="http://www.w3.org/2000/svg"
 width="1280.000000pt" height="546.000000pt" viewBox="0 0 1280.000000 546.000000"
 preserveAspectRatio="xMidYMid meet">
<g transform="translate(0.000000,546.000000) scale(0.100000,-0.100000)"
fill="#000000" stroke="none">
<path d="M97 5243 c-4 -3 -7 -887 -7 -1963 l0 -1958 118 -4 c104 -5 122 -8
164 -32 l47 -27 246 3 247 3 29 35 c16 19 34 50 41 70 8 24 13 295 17 900 l6
865 29 50 c16 28 66 87 111 132 119 120 252 178 355 155 32 -7 37 -13 60 -77
l25 -70 3 -1001 3 -1001 93 -6 c73 -4 104 -11 144 -31 51 -26 56 -26 286 -29
225 -2 236 -1 263 19 52 39 65 75 75 212 5 72 7 498 5 982 -4 938 -3 922 -67
1115 -84 253 -233 446 -412 534 -109 54 -291 100 -430 108 -172 10 -321 -24
-467 -104 -51 -28 -65 -33 -72 -22 -5 8 -9 196 -9 419 0 420 -5 475 -44 535
-9 13 -16 44 -16 68 0 25 -6 49 -12 54 -7 5 -49 24 -93 41 l-80 32 -326 0
c-179 0 -329 -3 -332 -7z"/>
<path d="M10420 5202 c-57 -33 -66 -42 -77 -82 -7 -25 -108 -443 -224 -930
-116 -487 -303 -1272 -415 -1745 -113 -473 -217 -909 -231 -969 l-26 -108 39
-35 c22 -20 63 -46 92 -59 49 -22 65 -24 221 -24 163 0 169 1 205 25 20 14 45
25 55 25 9 0 24 6 33 13 18 15 26 43 122 447 41 173 147 619 236 990 89 371
206 864 261 1095 55 231 127 533 160 670 81 336 159 684 159 707 0 17 -15 18
-273 18 l-272 0 -65 -38z"/>
<path d="M11877 5203 l-87 -35 -15 -52 c-8 -28 -159 -658 -335 -1401 -177
-742 -375 -1575 -441 -1850 -106 -446 -117 -501 -103 -510 9 -5 32 -24 51 -42
56 -52 110 -64 290 -66 140 -1 162 1 191 18 17 11 32 23 32 27 0 4 17 8 38 8
64 0 81 9 92 49 8 32 129 537 365 1526 41 171 146 614 235 985 247 1031 321
1353 316 1367 -4 10 -64 13 -273 12 l-268 -1 -88 -35z"/>
<path d="M2888 4518 l-3 -353 -150 -5 -150 -5 0 -295 0 -295 63 -13 c34 -8 60
-17 57 -22 -2 -4 3 -14 13 -23 26 -23 119 -67 141 -67 15 0 21 -9 25 -32 3
-18 7 -357 9 -753 4 -782 7 -827 62 -993 55 -163 145 -264 312 -350 165 -85
223 -97 458 -97 264 0 302 11 348 100 16 32 21 65 25 177 5 150 -7 241 -39
296 -11 19 -19 52 -19 77 0 24 -3 46 -8 49 -4 2 -46 0 -94 -5 -124 -14 -163
-2 -189 56 -11 24 -24 77 -29 117 -10 81 -14 1217 -4 1267 10 47 40 61 164 77
95 13 117 19 155 46 l45 32 77 -28 c43 -15 100 -32 126 -38 26 -6 52 -18 56
-27 5 -9 11 -345 14 -746 5 -780 7 -828 58 -990 43 -142 102 -226 219 -315
151 -115 236 -141 477 -147 363 -10 403 19 411 292 5 158 -10 259 -43 295 -9
10 -15 36 -15 63 0 25 -3 48 -7 50 -5 2 -45 0 -90 -6 -51 -6 -100 -6 -125 -1
-38 8 -46 15 -65 54 -12 25 -27 80 -32 123 -15 110 -15 1233 0 1276 15 43 35
51 162 67 125 15 145 27 174 103 15 38 18 78 18 226 0 176 -1 181 -27 236 -16
31 -28 71 -28 90 0 69 -14 76 -159 81 -72 2 -133 7 -138 11 -4 4 -10 105 -14
225 -5 167 -10 228 -24 265 -9 26 -21 47 -26 47 -5 0 -9 21 -9 46 0 30 -8 59
-21 80 l-21 34 -336 -2 -337 -3 -3 -352 -2 -352 -153 -3 -152 -3 -3 -57 c-3
-65 -22 -80 -22 -18 0 61 -31 76 -179 85 l-118 7 -7 51 c-3 29 -6 117 -6 196
0 147 -17 249 -46 282 -8 9 -14 36 -14 62 0 43 -3 49 -42 77 l-41 30 -338 0
-339 0 -2 -352z"/>
<path d="M6995 4203 c-157 -22 -283 -86 -454 -231 l-50 -43 -20 33 c-11 18
-24 38 -29 44 -5 6 -13 43 -17 82 l-7 72 -328 0 c-290 0 -329 -2 -334 -16 -3
-9 -6 -892 -6 -1964 l0 -1947 38 -7 c20 -3 51 -6 68 -6 16 0 36 -6 42 -12 10
-10 76 -13 257 -13 275 0 277 1 319 81 20 37 21 59 27 519 3 264 9 488 13 498
12 25 39 21 145 -22 140 -57 239 -76 406 -75 159 0 234 15 353 70 340 155 557
533 628 1090 57 451 -24 1050 -186 1374 -97 195 -243 343 -408 417 -113 50
-317 75 -457 56z m63 -747 c78 -40 142 -122 188 -237 74 -189 76 -702 4 -967
-47 -170 -150 -310 -254 -345 -115 -39 -288 -13 -398 59 -93 61 -89 33 -86
647 l3 532 34 63 c46 84 160 200 231 235 95 47 204 52 278 13z"/>
<path d="M8500 4141 l-35 -19 -6 -114 c-3 -62 -6 -236 -7 -386 l-3 -273 26
-33 c14 -18 54 -48 89 -65 l63 -33 248 4 247 3 34 39 c19 22 34 45 34 51 0 7
9 15 19 18 16 4 20 18 27 83 8 85 -2 719 -11 735 -4 5 -149 9 -348 9 -314 -1
-345 -2 -377 -19z"/>
<path d="M8574 2153 l-111 -4 -7 -67 c-3 -37 -6 -214 -6 -393 l0 -327 40 -35
c83 -75 90 -77 365 -77 201 0 251 3 275 15 17 9 30 20 30 25 0 6 9 10 19 10
53 0 51 -20 51 417 l0 404 -37 16 c-31 14 -80 17 -273 18 -129 1 -285 0 -346
-2z"/>
</g>
</svg>
