<?xml version="1.0" standalone="no"?>
<!DOCTYPE svg PUBLIC "-//W3C//DTD SVG 20010904//EN"
 "http://www.w3.org/TR/2001/REC-SVG-20010904/DTD/svg10.dtd">
<svg version="1.0" xmlns="http://www.w3.org/2000/svg"
 width="1067.000000pt" height="1280.000000pt" viewBox="0 0 1067.000000 1280.000000"
 preserveAspectRatio="xMidYMid meet">
<g transform="translate(0.000000,1280.000000) scale(0.100000,-0.100000)"
fill="#000000" stroke="none">
<path d="M3507 12790 c-178 -22 -332 -63 -451 -120 -132 -63 -265 -147 -1134
-718 -521 -343 -659 -427 -968 -589 -384 -202 -622 -300 -853 -351 -47 -10
-86 -23 -88 -29 -5 -15 155 -163 234 -215 158 -104 308 -161 471 -177 122 -13
196 -39 351 -126 139 -77 216 -110 296 -124 230 -42 270 -52 405 -105 160 -63
255 -86 363 -86 141 -1 281 -26 441 -82 187 -64 212 -65 391 -7 176 56 172 55
180 27 19 -61 140 -330 175 -390 61 -102 111 -153 312 -318 4 -3 -10 -51 -32
-106 -22 -55 -44 -134 -51 -175 -42 -270 96 -667 321 -925 71 -82 237 -232
282 -255 20 -10 39 -23 43 -29 12 -19 -33 -96 -101 -173 -127 -143 -227 -327
-260 -476 -35 -156 -27 -748 12 -896 38 -147 184 -397 343 -589 94 -114 96
-86 -22 -215 -78 -85 -198 -261 -252 -369 -54 -109 -65 -175 -65 -417 0 -442
25 -514 326 -911 129 -172 168 -237 160 -268 -3 -13 -26 -49 -51 -80 -141
-172 -173 -451 -89 -773 42 -164 96 -264 214 -398 71 -82 99 -130 93 -165 -2
-14 -19 -50 -39 -80 -19 -30 -51 -87 -70 -127 -32 -64 -37 -87 -46 -190 -18
-214 15 -424 89 -565 73 -139 185 -233 396 -332 l115 -54 5 -314 c5 -359 11
-396 73 -459 21 -21 46 -39 57 -39 36 0 74 52 90 126 16 70 41 340 52 574 10
193 -1 176 113 183 113 7 193 32 271 84 150 99 263 286 300 497 17 91 14 311
-5 381 -15 62 -25 81 -113 224 -28 46 -51 87 -51 91 0 3 50 66 111 140 132
161 188 243 234 343 131 285 125 557 -20 849 -53 107 -77 138 -116 155 -25 10
-29 17 -23 35 17 56 82 128 269 298 171 156 255 275 294 420 55 204 55 659 -1
807 -31 83 -105 187 -238 331 l-121 132 33 28 c310 258 441 413 519 616 63
164 96 402 86 631 -13 308 -77 451 -348 776 l-100 120 155 160 c208 214 303
331 381 469 93 164 123 282 134 525 6 122 13 192 24 216 10 26 38 52 95 93 96
67 218 187 271 265 21 31 59 97 84 146 58 113 67 124 108 135 49 13 220 27
594 50 549 34 712 61 843 137 53 31 132 39 257 25 122 -14 176 -3 355 69 149
60 232 81 435 110 155 22 266 80 399 208 165 160 242 294 206 362 -10 18 -23
19 -173 19 -109 0 -177 5 -208 14 -120 37 -503 253 -869 491 -231 151 -356
239 -780 555 -563 419 -731 534 -935 641 -182 96 -419 164 -658 189 -343 37
-629 -93 -818 -371 -149 -220 -188 -512 -103 -782 34 -105 67 -170 148 -286
36 -52 66 -100 66 -107 0 -24 -63 -64 -143 -91 -76 -25 -94 -27 -249 -28 -91
0 -170 3 -174 8 -4 4 -9 136 -12 295 -5 333 -2 353 79 546 57 135 89 248 89
313 0 24 -7 76 -16 116 -82 367 -460 533 -812 357 -198 -99 -308 -281 -305
-505 1 -110 21 -190 87 -346 48 -115 59 -206 54 -432 -7 -262 -29 -307 -163
-342 -96 -25 -171 -20 -230 14 -62 36 -154 119 -177 158 -17 30 -17 31 12 74
16 24 60 81 97 126 135 162 183 273 191 442 5 119 -8 210 -47 322 -103 292
-343 496 -670 570 -99 22 -329 32 -434 19z m323 -120 c236 -29 374 -95 531
-251 72 -71 104 -113 130 -164 32 -66 34 -73 33 -179 -1 -234 -58 -361 -237
-532 -183 -173 -172 -240 80 -503 l118 -123 201 21 c111 11 211 21 223 21 21
0 21 -2 21 -253 0 -387 -19 -489 -99 -521 -62 -24 -257 -49 -333 -42 -219 20
-430 124 -585 288 -89 95 -153 258 -153 390 0 55 2 59 27 69 26 10 42 25 43
40 0 15 -62 30 -165 39 -60 5 -137 17 -170 26 -145 39 -284 124 -397 242 -152
160 -226 345 -229 574 -2 166 -41 197 -119 92 -82 -110 -233 -229 -565 -449
-455 -300 -943 -568 -1174 -645 -259 -87 -514 -74 -734 37 -38 19 -67 36 -66
38 2 2 101 47 219 100 632 285 1004 500 1820 1050 312 211 428 283 635 395
293 158 447 221 586 239 94 12 262 13 359 1z m3315 -54 c180 -32 380 -116 620
-260 178 -108 293 -188 705 -491 500 -369 701 -508 985 -687 319 -200 624
-360 808 -424 131 -45 171 -69 175 -107 7 -56 -110 -136 -237 -163 -244 -51
-629 45 -981 247 -180 103 -545 368 -800 582 -192 160 -307 285 -363 395 -53
102 -106 166 -134 160 -20 -4 -19 -3 -7 -144 20 -238 -110 -498 -334 -662
-136 -100 -170 -109 -482 -123 -135 -6 -247 -13 -249 -15 -2 -1 6 -16 18 -32
38 -54 43 -79 26 -146 -37 -147 -136 -296 -267 -400 -225 -180 -520 -229 -833
-140 l-95 27 0 368 c0 203 2 369 4 369 3 0 47 -11 98 -25 303 -82 498 -6 684
270 l61 89 -108 118 c-164 180 -226 298 -250 483 -15 119 4 237 56 342 59 119
236 291 349 338 99 42 397 58 551 31z m-1690 -11 c136 -36 240 -120 298 -243
30 -62 32 -75 31 -167 0 -79 -5 -112 -22 -156 -42 -106 -133 -218 -204 -252
-53 -25 -138 -39 -249 -41 -96 -1 -97 -1 -151 36 -79 55 -214 197 -238 252
-17 37 -21 67 -21 155 0 135 10 176 60 238 79 99 165 166 236 184 54 13 199 9
260 -6z m-72 -1014 c97 -10 179 -20 180 -22 7 -9 -12 -790 -22 -894 -21 -231
-27 -343 -76 -1385 -43 -924 -43 -930 -99 -930 -36 0 -151 38 -242 80 -67 31
-82 42 -89 66 -21 80 -11 2624 12 3002 l6 102 76 -1 c42 0 156 -8 254 -18z
m-2681 -88 c63 -137 102 -261 87 -279 -32 -38 -653 -437 -886 -568 -122 -69
-234 -117 -328 -141 -96 -25 -245 -23 -350 4 -139 37 -203 101 -115 115 179
28 603 281 1160 690 231 170 370 266 383 266 4 0 26 -39 49 -87z m5454 -181
c32 -22 127 -97 209 -168 165 -143 256 -215 468 -371 194 -144 514 -356 592
-393 55 -26 65 -35 65 -56 0 -55 -27 -78 -112 -94 -255 -49 -785 231 -1184
625 -180 178 -229 275 -200 398 25 107 65 121 162 59z m-5149 -295 l124 -122
-205 -153 c-350 -260 -548 -380 -711 -432 -146 -47 -435 -35 -435 19 0 27 35
54 165 127 224 125 390 245 676 491 166 141 233 193 251 193 6 0 66 -55 135
-123z m4893 -108 c24 -17 111 -97 194 -178 207 -201 318 -289 561 -441 104
-65 175 -125 175 -147 0 -26 -53 -35 -170 -30 -246 12 -420 73 -610 215 -236
176 -430 376 -430 442 0 51 147 169 211 170 14 0 45 -14 69 -31z m-4459 -59
c58 -17 104 -52 107 -83 6 -53 -73 -155 -220 -283 -245 -215 -448 -315 -643
-318 -85 -1 -135 17 -135 48 0 25 25 50 120 122 36 27 166 148 290 270 124
122 241 231 260 243 31 20 45 22 110 17 41 -3 91 -10 111 -16z m3982 -113 c20
-15 62 -64 94 -109 209 -293 291 -387 404 -464 116 -78 123 -110 33 -143 l-54
-21 -122 36 c-68 19 -152 51 -188 70 -167 92 -372 291 -449 438 -76 144 -11
230 170 224 65 -3 81 -7 112 -31z m-3738 -280 c96 -143 319 -348 454 -416 135
-69 289 -91 629 -91 l162 0 0 -85 c0 -132 -22 -160 -101 -127 -94 40 -257 65
-429 66 -124 0 -142 -2 -215 -28 -111 -39 -269 -121 -322 -167 -24 -22 -54
-41 -66 -44 -66 -17 -260 138 -387 310 -62 83 -130 221 -130 263 0 43 53 119
174 252 95 104 151 151 171 144 7 -3 34 -37 60 -77z m3489 -248 c152 -158 206
-227 206 -264 0 -79 -391 -495 -466 -495 -26 0 -86 39 -199 128 -242 192 -511
255 -804 188 -133 -30 -206 -34 -215 -10 -3 9 -6 55 -6 104 0 110 3 114 99
100 92 -13 458 -13 535 0 175 29 282 84 477 246 106 89 197 154 215 154 7 0
78 -68 158 -151z m-898 -504 c160 -28 274 -87 394 -205 104 -102 177 -201 196
-269 14 -47 15 -72 6 -175 -13 -138 -29 -206 -77 -325 -114 -280 -347 -542
-600 -676 -95 -50 -154 -47 -278 12 -201 97 -307 174 -307 223 0 36 30 58 130
95 210 78 401 205 566 376 151 158 210 259 243 426 20 95 28 223 15 223 -9 0
-60 -37 -124 -89 -30 -24 -79 -55 -109 -69 -52 -24 -59 -25 -190 -18 -224 10
-288 35 -379 146 -61 74 -95 150 -83 182 27 72 136 122 331 152 62 9 185 5
266 -9z m-1556 -30 c97 -31 150 -74 150 -121 0 -76 -101 -193 -215 -250 -194
-95 -393 -79 -524 42 -63 58 -98 69 -105 32 -13 -64 -14 -91 -5 -188 19 -214
48 -280 189 -420 177 -178 411 -304 835 -449 401 -138 597 -221 794 -335 69
-40 158 -89 197 -109 56 -28 91 -57 172 -142 122 -127 247 -292 290 -379 45
-91 63 -196 63 -361 1 -467 -168 -776 -556 -1020 -113 -71 -131 -71 -263 -5
-120 60 -216 128 -237 169 -31 61 -14 103 80 192 142 135 247 305 281 456 21
94 15 246 -11 313 -27 67 -76 139 -131 194 -83 82 -232 171 -639 379 -694 355
-861 451 -1043 597 -169 136 -299 315 -359 495 -24 72 -27 95 -28 225 0 127 3
153 23 210 81 225 289 409 545 479 107 29 110 30 267 27 126 -3 156 -7 230
-31z m1131 -527 c47 -33 120 -72 173 -93 107 -42 120 -51 129 -87 5 -20 15
-29 35 -33 44 -10 57 -20 60 -49 3 -24 -11 -42 -90 -120 -109 -107 -254 -208
-386 -265 -135 -59 -150 -56 -171 38 -21 97 30 154 228 255 70 36 135 74 145
85 19 21 19 21 -13 21 -17 0 -83 -16 -147 -35 -63 -19 -128 -35 -145 -35 l-29
0 0 188 c0 103 3 211 6 239 l7 53 59 -53 c32 -28 95 -78 139 -109z m-925 96
c8 -65 -11 -351 -26 -406 -9 -32 -15 -38 -37 -38 -26 0 -453 209 -453 221 0 4
12 10 27 14 61 15 236 107 348 183 65 45 123 82 126 82 4 0 11 -25 15 -56z
m-390 -380 c134 -66 342 -200 373 -240 29 -37 27 -72 -4 -84 -89 -34 -390 142
-535 312 -27 33 -47 65 -44 70 14 22 96 -1 210 -58z m-87 -1130 c184 -97 245
-137 271 -179 28 -45 20 -69 -52 -163 -105 -135 -138 -225 -138 -372 1 -185
84 -430 183 -537 69 -74 275 -213 557 -373 159 -90 511 -324 686 -456 122 -91
177 -155 257 -301 63 -114 124 -249 138 -306 17 -70 6 -357 -19 -472 -64 -295
-235 -532 -469 -649 -86 -43 -126 -35 -260 55 -144 97 -207 181 -183 244 5 14
35 56 68 94 123 147 195 361 172 509 -13 77 -40 152 -75 202 -68 98 -392 332
-820 590 -251 152 -375 250 -525 416 -130 144 -270 392 -311 553 -25 99 -35
331 -20 477 26 255 88 390 282 620 57 68 106 123 108 124 2 0 70 -34 150 -76z
m738 -388 c40 -19 94 -56 121 -83 45 -43 51 -53 57 -106 12 -93 -24 -713 -46
-818 -19 -87 -45 -96 -138 -49 -71 36 -96 65 -110 131 -18 82 -33 376 -35 662
-1 255 0 269 18 283 30 21 55 17 133 -20z m-276 -178 c20 -46 20 -566 1 -620
-23 -64 -48 -46 -110 78 -92 182 -97 337 -16 495 42 83 101 105 125 47z m712
-138 c20 -21 49 -63 64 -92 25 -48 28 -63 28 -153 0 -96 -2 -104 -37 -175 -39
-81 -98 -146 -121 -137 -20 8 -26 42 -33 212 -6 138 5 325 22 369 10 27 40 18
77 -24z m-1176 -1510 c103 -56 302 -186 341 -223 45 -44 42 -74 -17 -172 -70
-114 -93 -195 -94 -325 0 -180 43 -270 206 -427 124 -120 220 -194 427 -331
260 -171 374 -267 485 -405 154 -192 219 -401 195 -622 -23 -208 -105 -364
-275 -522 -237 -222 -375 -185 -375 102 0 121 14 194 57 289 32 71 35 86 30
141 -14 179 -205 373 -556 564 -190 103 -338 218 -497 383 -145 150 -204 238
-259 384 -99 262 -121 540 -60 749 44 149 177 397 236 439 37 25 78 19 156
-24z m691 -427 c128 -72 128 -69 125 -407 -2 -267 -13 -407 -34 -432 -22 -27
-107 27 -146 93 -17 30 -27 66 -33 130 -11 100 -13 663 -3 663 3 0 45 -21 91
-47z m-184 -276 c8 -30 5 -60 -12 -135 -12 -53 -26 -100 -32 -106 -30 -30 -53
183 -26 247 12 31 20 38 38 35 17 -2 25 -13 32 -41z m535 -84 c19 -66 8 -170
-25 -239 -37 -78 -59 -21 -45 121 9 91 16 120 34 143 16 20 26 14 36 -25z
m-966 -1236 c93 -42 288 -169 282 -185 -3 -7 -8 -98 -11 -200 -7 -214 -4 -227
70 -342 71 -109 193 -229 406 -398 360 -287 488 -449 521 -661 14 -92 -1 -188
-45 -297 -41 -101 -130 -239 -196 -305 -48 -48 -78 -63 -67 -35 3 7 18 67 33
132 24 102 28 142 28 274 l1 156 -37 75 c-46 93 -144 210 -234 278 -38 28
-136 85 -219 125 -231 114 -345 193 -512 358 -206 202 -275 356 -274 613 0
246 75 435 171 435 16 0 53 -11 83 -23z m592 -353 c23 -9 51 -70 64 -139 16
-83 14 -373 -2 -405 -32 -64 -97 -12 -117 95 -15 77 -20 358 -7 418 8 38 23
45 62 31z m-161 -56 c7 -30 7 -136 0 -165 -9 -31 -19 -29 -34 8 -17 41 -18
107 -1 147 16 38 26 41 35 10z m-243 -1023 c105 -37 117 -96 42 -195 -76 -100
-95 -131 -115 -188 -32 -92 -41 -201 -28 -352 7 -74 10 -150 8 -168 -3 -33 -3
-33 -56 46 -98 145 -132 277 -135 521 -2 154 8 188 79 270 70 81 119 96 205
66z m389 -370 c13 -150 13 -1192 0 -1375 -5 -74 -9 -142 -10 -149 0 -10 -3
-12 -10 -5 -20 20 -32 464 -27 1034 3 316 8 588 12 603 13 49 24 15 35 -108z
m-183 23 c44 -90 44 -584 0 -712 l-13 -37 -46 93 c-127 255 -128 527 -2 661
30 32 44 31 61 -5z m431 -103 c44 -37 57 -102 56 -275 0 -169 -16 -241 -65
-289 -70 -71 -84 -37 -82 204 2 263 19 385 53 385 5 0 22 -11 38 -25z"/>
<path d="M5508 12469 c-25 -14 -22 -54 7 -117 31 -67 32 -132 4 -206 -25 -67
-93 -146 -148 -171 -22 -10 -43 -27 -47 -37 -26 -84 180 -35 281 67 58 58 87
121 93 206 6 94 -16 155 -78 213 -27 25 -53 46 -59 46 -5 0 -15 2 -23 5 -7 2
-21 0 -30 -6z"/>
<path d="M6068 9629 c-65 -25 -13 -74 91 -85 47 -5 111 18 119 43 11 36 -145
67 -210 42z"/>
<path d="M4334 9629 c-17 -5 -37 -15 -44 -23 -16 -21 -3 -55 23 -61 36 -8 198
29 209 49 20 35 -106 59 -188 35z"/>
</g>
</svg>
