<?xml version="1.0" standalone="no"?>
<!DOCTYPE svg PUBLIC "-//W3C//DTD SVG 20010904//EN"
 "http://www.w3.org/TR/2001/REC-SVG-20010904/DTD/svg10.dtd">
<svg version="1.0" xmlns="http://www.w3.org/2000/svg"
 width="640.000000pt" height="1280.000000pt" viewBox="0 0 640.000000 1280.000000"
 preserveAspectRatio="xMidYMid meet">
<g transform="translate(0.000000,1280.000000) scale(0.100000,-0.100000)"
fill="#000000" stroke="none">
<path d="M3046 12785 c-231 -38 -396 -108 -517 -222 -105 -99 -165 -228 -157
-344 9 -124 73 -221 203 -309 125 -84 159 -137 189 -295 9 -49 19 -98 22 -107
5 -17 27 -18 272 -18 319 0 480 12 522 37 17 9 30 22 31 28 1 5 2 28 3 51 3
52 55 147 151 274 137 180 183 294 171 420 -18 200 -225 406 -473 471 -103 27
-296 34 -417 14z"/>
<path d="M4615 11480 c-86 -11 -526 -35 -1015 -55 -1657 -69 -2246 -190 -2720
-558 -312 -242 -553 -556 -649 -843 -100 -299 -76 -687 65 -1079 82 -225 148
-330 318 -503 286 -293 682 -501 1191 -627 285 -70 350 -78 686 -83 l307 -4 6
69 c3 37 9 200 12 361 l7 292 -89 0 c-142 0 -430 19 -523 34 -358 58 -702 223
-878 422 -126 142 -231 349 -269 534 -22 103 -24 274 -5 350 80 327 520 689
1041 856 222 72 454 89 1060 81 547 -8 866 -30 1230 -87 357 -56 517 -60 725
-19 90 18 358 109 379 129 4 4 -41 33 -102 64 -60 31 -117 65 -126 75 -17 19
-17 20 7 36 14 8 78 27 143 41 176 38 247 61 277 88 59 55 18 122 -91 151
-122 33 -284 90 -427 152 -291 126 -379 145 -560 123z m405 -311 c0 -15 -40
-30 -73 -27 -42 4 -41 20 2 34 36 12 71 8 71 -7z"/>
<path d="M6145 10978 c-13 -8 -113 -14 -285 -19 -335 -9 -385 -17 -378 -62 6
-41 73 -50 383 -51 302 -1 338 4 355 50 10 24 -5 84 -20 84 -5 0 -14 2 -22 5
-7 2 -22 -1 -33 -7z"/>
<path d="M3056 10653 l-279 -3 7 -238 c4 -130 11 -374 16 -542 6 -168 17 -521
25 -785 62 -1946 112 -3033 145 -3120 22 -58 100 -73 281 -55 68 6 126 13 128
16 11 10 46 542 71 1054 25 530 32 695 80 1895 22 545 47 1154 55 1354 8 199
15 378 15 397 l0 34 -132 -2 c-73 -2 -259 -4 -412 -5z"/>
<path d="M3523 8143 c6 -251 16 -331 44 -355 8 -7 60 -27 115 -45 184 -60 554
-259 663 -355 65 -59 169 -210 224 -329 94 -201 104 -298 47 -462 -100 -291
-308 -471 -697 -605 -223 -77 -473 -123 -894 -167 -268 -27 -323 -35 -484 -66
-354 -67 -673 -187 -899 -339 -115 -77 -257 -210 -333 -313 -105 -141 -216
-401 -264 -617 -9 -41 -19 -132 -22 -201 -5 -107 -2 -142 17 -230 92 -430 321
-717 732 -914 280 -134 665 -221 1025 -232 l183 -6 -6 209 c-6 237 -17 335
-42 379 -15 26 -30 33 -102 53 -156 42 -393 123 -478 162 -238 112 -406 293
-443 478 -36 190 51 426 226 611 91 96 174 158 293 220 182 93 363 132 912
196 713 84 962 143 1273 302 324 166 581 399 750 679 211 352 238 810 67 1168
-178 373 -578 696 -1078 870 -192 67 -399 109 -662 136 -58 5 -120 13 -139 16
l-34 5 6 -248z"/>
<path d="M2940 5063 c0 -26 9 -217 20 -423 26 -495 54 -1128 85 -1925 41
-1039 57 -1333 81 -1520 20 -157 40 -204 78 -189 46 18 61 241 91 1319 15 535
29 898 60 1600 15 330 37 1147 31 1152 -1 2 -74 8 -162 13 -87 5 -187 12 -221
16 l-63 6 0 -49z"/>
<path d="M3452 3410 c-13 -5 -30 -26 -38 -46 -34 -81 -26 -432 11 -503 12 -24
32 -40 73 -57 120 -53 149 -71 222 -144 138 -139 206 -293 231 -523 13 -118 2
-232 -37 -386 -83 -330 -271 -572 -639 -823 -308 -210 -584 -336 -785 -359
-142 -16 -236 -77 -184 -120 41 -33 358 -17 593 31 343 70 814 295 1102 528
168 135 308 312 370 468 42 105 84 276 105 421 23 167 16 466 -14 575 -52 192
-167 374 -357 564 -147 148 -249 220 -438 314 -126 63 -176 77 -215 60z"/>
<path d="M3186 488 c-26 -40 -38 -152 -34 -301 4 -143 14 -187 43 -187 23 0
53 35 65 77 34 120 30 375 -7 415 -22 24 -50 22 -67 -4z"/>
</g>
</svg>
