<?xml version="1.0" standalone="no"?>
<!DOCTYPE svg PUBLIC "-//W3C//DTD SVG 20010904//EN"
 "http://www.w3.org/TR/2001/REC-SVG-20010904/DTD/svg10.dtd">
<svg version="1.0" xmlns="http://www.w3.org/2000/svg"
 width="128.000000pt" height="128.000000pt" viewBox="0 0 858.000000 1280.000000"
 preserveAspectRatio="xMidYMid meet">
<g transform="translate(0.000000,1280.000000) scale(0.100000,-0.100000)"
fill="#2C3E50" stroke="none">
<path d="M7405 12077 l-390 -724 -185 -100 -185 -100 -408 -869 c-224 -478
-641 -1366 -927 -1974 -285 -608 -548 -1167 -584 -1244 l-66 -139 0 -313 0
-314 -155 -332 c-85 -182 -155 -343 -155 -357 0 -15 9 -60 21 -101 64 -235
206 -382 418 -436 91 -23 315 -15 426 15 44 12 81 25 83 29 2 4 89 178 195
386 l192 380 161 83 161 83 463 998 c255 548 712 1534 1016 2190 l554 1193 0
263 0 264 270 738 269 738 -24 42 c-35 60 -131 144 -211 186 -121 63 -317 117
-484 134 l-65 6 -390 -725z m-458 -1119 c14 -15 27 -41 30 -64 5 -37 -71 -199
-918 -1989 -507 -1073 -931 -1960 -942 -1973 -67 -74 -193 -23 -191 77 1 54
1833 3915 1876 3955 27 25 37 28 76 23 29 -3 53 -13 69 -29z"/>
<path d="M3645 9710 c-956 -78 -1822 -476 -2489 -1145 -843 -845 -1252 -2000
-1130 -3192 111 -1088 675 -2080 1559 -2743 227 -170 492 -328 725 -431 l120
-53 2 -200 3 -201 1280 0 1280 0 5 123 5 123 175 59 c571 191 1064 492 1494
910 206 201 374 399 515 608 l42 62 199 0 200 0 0 255 0 255 -3229 0 -3228 0
-61 112 c-199 367 -325 777 -373 1208 -16 142 -16 510 0 645 82 712 347 1307
815 1834 593 666 1480 1061 2386 1061 406 0 907 -102 1239 -251 35 -16 66 -28
68 -26 7 8 293 636 293 645 0 14 -188 92 -352 147 -261 87 -577 156 -853 185
-137 15 -556 21 -690 10z m2665 -6088 c0 -13 -235 -242 -319 -311 -788 -653
-1817 -890 -2817 -651 -441 105 -883 323 -1248 617 -112 89 -366 328 -366 344
0 5 1021 9 2375 9 1306 0 2375 -4 2375 -8z"/>
<path d="M632 776 c-155 -420 -282 -767 -282 -770 0 -3 1530 -6 3400 -6 1870
0 3400 2 3400 4 0 2 -152 347 -338 767 l-338 764 -2780 3 -2781 2 -281 -764z
m433 166 c61 -207 203 -393 405 -528 193 -128 399 -199 725 -249 145 -22 255
-47 255 -56 0 -14 -425 -10 -765 6 -417 20 -1018 55 -1023 60 -2 2 79 221 179
486 l184 483 12 -72 c6 -40 19 -98 28 -130z"/>
</g>
</svg>
