<?xml version="1.0" standalone="no"?>
<!DOCTYPE svg PUBLIC "-//W3C//DTD SVG 20010904//EN"
 "http://www.w3.org/TR/2001/REC-SVG-20010904/DTD/svg10.dtd">
<svg version="1.0" xmlns="http://www.w3.org/2000/svg"
 width="128.000000pt" height="128.000000pt" viewBox="0 0 958.000000 1280.000000"
 preserveAspectRatio="xMidYMid meet">
<g transform="translate(0.000000,1280.000000) scale(0.100000,-0.100000)"
fill="#000000" stroke="none">
<path d="M4273 12775 c-54 -27 -84 -60 -124 -135 -20 -38 -24 -59 -24 -135 0
-78 4 -97 27 -145 15 -30 43 -73 62 -95 l34 -40 127 2 c111 2 132 0 167 -18
56 -29 161 -36 218 -14 25 9 52 19 62 22 39 12 546 -218 602 -274 44 -43 69
-108 73 -193 l4 -75 -163 -94 c-824 -477 -1543 -1029 -2213 -1697 -167 -167
-641 -667 -748 -790 -29 -33 -46 -44 -67 -44 -71 0 -80 -9 -544 -560 -159
-190 -333 -394 -386 -455 -111 -126 -144 -172 -192 -270 -100 -199 -155 -451
-146 -664 6 -116 15 -143 101 -298 99 -179 90 -310 -38 -507 -18 -28 -135
-240 -260 -471 -125 -231 -242 -447 -260 -480 -64 -117 -253 -501 -298 -605
-125 -290 -229 -700 -267 -1045 -24 -228 -10 -548 35 -770 142 -701 624 -1322
1460 -1882 718 -480 1641 -871 2325 -983 492 -81 1068 -77 1570 11 896 156
2366 880 2985 1471 113 108 388 416 582 652 350 426 496 717 557 1111 108 697
21 1149 -308 1591 -297 398 -601 706 -885 894 l-23 16 30 89 c42 121 56 219
49 340 -14 240 -134 481 -315 631 -125 103 -273 176 -428 210 -122 26 -313 23
-434 -9 -238 -62 -434 -198 -561 -390 -315 -479 -113 -1108 425 -1327 107 -44
159 -57 281 -70 171 -19 368 20 542 107 l91 46 39 -23 c78 -48 117 -86 206
-204 118 -156 238 -303 346 -424 128 -143 198 -260 260 -437 55 -154 66 -228
66 -450 0 -169 -4 -218 -23 -312 -59 -294 -208 -644 -400 -943 -198 -308 -468
-578 -797 -797 -272 -181 -514 -305 -1120 -575 -607 -270 -966 -387 -1406
-457 -822 -131 -1397 -55 -2152 283 -1022 458 -1835 1067 -2233 1671 -248 377
-344 755 -289 1128 9 56 33 174 55 262 161 663 436 1108 1019 1653 186 173
199 178 406 173 375 -11 515 -6 605 18 143 38 299 121 451 241 89 70 370 394
525 605 148 202 304 447 439 689 32 57 36 73 28 95 -8 23 -3 35 52 106 594
772 1027 1566 1323 2427 165 478 314 1041 336 1273 l11 119 40 9 c22 5 75 7
117 4 113 -6 147 -27 268 -172 l100 -120 -7 -50 c-14 -106 5 -197 53 -260 34
-45 45 -77 65 -178 20 -109 105 -163 254 -161 103 1 154 33 194 124 27 62 34
111 26 175 -8 70 -37 111 -112 160 -81 53 -99 70 -140 132 -36 55 -77 86 -128
98 -23 5 -48 32 -112 118 -137 186 -217 272 -276 302 -71 34 -163 48 -268 41
l-86 -7 -17 68 c-24 92 -59 163 -111 221 -53 58 -211 142 -511 272 l-192 82
-17 43 c-21 57 -82 112 -132 120 -21 4 -51 9 -67 12 -19 3 -56 32 -105 83
-122 125 -210 155 -308 105z m822 -505 c240 -102 412 -191 461 -239 49 -49 89
-126 109 -212 8 -35 13 -64 12 -64 -1 -1 -28 -11 -59 -23 l-57 -21 -7 57 c-11
91 -41 162 -90 209 -47 45 -280 165 -476 244 l-107 43 15 27 c8 16 14 35 14
44 0 9 3 14 8 12 4 -3 84 -37 177 -77z m591 -782 c-3 -24 -8 -70 -11 -103 -8
-74 -117 -523 -180 -740 -308 -1062 -745 -1926 -1442 -2847 -41 -54 -77 -98
-81 -98 -14 0 -112 71 -112 81 0 6 41 67 91 137 118 164 330 485 451 682 445
726 790 1497 982 2195 39 143 131 537 142 606 9 56 16 64 83 99 77 40 83 39
77 -12z m-251 -254 c-62 -276 -133 -537 -204 -751 -250 -757 -645 -1537 -1168
-2307 -201 -296 -247 -355 -292 -379 -31 -17 -132 -134 -437 -507 -218 -267
-407 -497 -421 -511 -31 -34 -197 -120 -295 -153 -229 -78 -475 -74 -624 9
-152 85 -336 265 -398 388 -47 95 -66 173 -67 278 -1 172 55 303 221 524 156
206 288 368 535 653 254 295 255 296 255 346 0 36 9 48 128 175 943 1006 1508
1533 2122 1980 290 212 673 453 678 428 2 -8 -13 -86 -33 -173z m-1306 -707
c-19 -17 -100 -90 -180 -161 -186 -167 -974 -958 -1239 -1243 l-205 -221 -30
18 c-16 10 -45 37 -63 61 l-33 42 79 81 c43 45 166 176 272 291 340 368 959
968 1003 971 7 0 23 5 37 11 34 14 115 33 143 33 13 0 28 -5 34 -11 9 -9 37
11 110 74 54 48 100 86 103 86 3 0 -11 -14 -31 -32z m-290 -73 c-13 -14 -42
-39 -64 -56 -25 -19 -18 -9 20 26 64 59 84 73 44 30z"/>
<path d="M4554 11422 c-358 -221 -880 -592 -898 -639 -3 -8 -11 -11 -16 -8 -6
4 -9 2 -8 -3 2 -5 -80 -83 -182 -172 -242 -213 -608 -542 -792 -714 -82 -75
-148 -134 -148 -129 0 13 -66 -56 -333 -342 -143 -154 -233 -253 -199 -221 34
33 69 61 78 62 56 8 433 302 959 748 110 94 193 161 186 150 -8 -10 5 -1 30
22 204 188 319 290 474 423 99 84 203 174 230 199 28 25 53 45 57 44 5 -1 7 2
5 7 -1 5 54 60 123 122 153 137 335 305 453 419 49 47 102 93 118 103 26 17
36 27 26 27 -2 0 -75 -44 -163 -98z m-2044 -1675 c0 -2 -19 -21 -42 -42 l-43
-40 40 43 c36 39 45 47 45 39z"/>
</g>
</svg>
