<?xml version="1.0" standalone="no"?>
<!DOCTYPE svg PUBLIC "-//W3C//DTD SVG 20010904//EN"
 "http://www.w3.org/TR/2001/REC-SVG-20010904/DTD/svg10.dtd">
<svg version="1.0" xmlns="http://www.w3.org/2000/svg"
 width="128.000000pt" height="128.000000pt" viewBox="0 0 609.000000 1280.000000"
 preserveAspectRatio="xMidYMid meet">
<g transform="translate(0.000000,1280.000000) scale(0.100000,-0.100000)"
fill="#1e656d" stroke="none">
<path d="M3831 12604 c-70 -19 -115 -47 -140 -88 -99 -159 168 -366 473 -366
75 0 100 -4 142 -24 157 -73 333 -236 401 -371 19 -37 51 -160 51 -195 0 -8 5
-55 11 -105 6 -49 15 -126 20 -170 14 -115 41 -339 51 -415 29 -222 47 -377
48 -390 0 -30 24 -245 28 -251 11 -19 -336 -271 -516 -376 -498 -289 -1039
-452 -1675 -503 -157 -13 -518 -13 -681 0 -275 21 -610 67 -789 107 -217 48
-450 111 -600 161 l-170 57 -7 35 c-11 54 -16 111 -38 450 -21 332 -27 411
-35 500 -15 162 -35 581 -30 620 20 139 109 292 252 432 67 65 70 67 148 81
108 20 180 49 268 106 134 88 201 200 176 296 -39 143 -249 165 -486 50 -134
-65 -271 -199 -257 -251 4 -14 -21 -46 -90 -116 -140 -143 -231 -291 -279
-451 -18 -61 -21 -96 -21 -232 1 -88 4 -187 7 -220 3 -33 10 -123 16 -200 6
-77 16 -185 21 -240 6 -55 12 -172 15 -260 2 -88 9 -207 14 -265 6 -58 15
-166 21 -240 17 -214 22 -238 95 -446 8 -22 33 -73 55 -114 22 -40 40 -75 40
-78 0 -23 170 -233 276 -342 72 -74 179 -184 236 -245 1178 -1243 1219 -1286
1257 -1322 44 -42 137 -90 218 -114 75 -21 255 -42 323 -37 l45 3 2 -190 c5
-683 99 -1232 274 -1603 136 -289 282 -433 694 -684 77 -46 217 -131 310 -188
225 -136 464 -299 600 -406 301 -240 533 -534 627 -799 66 -183 82 -279 82
-480 -1 -258 -40 -447 -154 -744 -65 -167 -334 -495 -565 -687 -359 -299 -711
-448 -1112 -469 -114 -6 -288 8 -391 30 -37 9 -77 18 -90 20 -22 5 -22 8 -16
103 17 269 -60 488 -240 679 -185 197 -420 279 -684 239 -155 -24 -301 -87
-429 -188 -134 -106 -249 -289 -290 -463 -20 -85 -18 -292 3 -385 63 -279 249
-496 504 -589 125 -46 181 -55 315 -54 240 1 401 67 572 235 66 66 86 80 105
76 317 -70 424 -83 638 -75 185 8 360 35 495 78 109 34 158 51 215 74 205 84
471 250 657 409 278 238 569 597 651 801 84 211 139 409 168 597 19 129 28
433 14 513 -50 295 -90 422 -194 621 -195 369 -527 695 -1066 1047 -112 72
-380 237 -386 237 -7 0 -342 214 -399 255 -198 141 -285 273 -381 580 -87 279
-139 679 -151 1156 l-6 287 39 6 c21 3 66 8 99 12 134 14 307 71 404 134 85
55 126 101 205 225 38 61 104 164 146 230 42 66 144 226 225 355 82 129 174
274 204 322 31 48 87 136 124 195 241 382 318 503 397 623 144 221 218 393
254 590 9 47 21 104 26 128 17 70 11 176 -19 382 -14 102 -39 304 -51 430 -7
63 -17 138 -22 165 -6 28 -14 79 -19 115 -4 36 -19 162 -33 280 -15 118 -30
253 -35 300 -31 291 -184 521 -471 709 -47 31 -101 63 -118 70 -20 9 -31 19
-28 27 9 24 -82 102 -167 144 -135 67 -301 88 -426 54z m1069 -2798 c0 -58
-117 -315 -191 -421 -38 -55 -227 -350 -619 -970 -139 -220 -272 -429 -295
-465 -23 -36 -88 -139 -145 -230 -57 -91 -113 -173 -124 -183 -93 -79 -246
-118 -586 -151 -268 -25 -407 -23 -516 9 -55 15 -68 26 -184 144 -69 70 -197
203 -286 296 -736 778 -929 980 -1064 1120 -139 143 -280 320 -280 351 0 12
34 7 130 -21 270 -79 657 -158 920 -190 500 -60 821 -59 1390 4 132 15 451 82
605 129 69 20 245 78 275 90 14 5 45 18 70 27 25 10 65 26 89 37 24 11 64 28
90 38 167 67 538 280 680 391 24 20 41 17 41 -5z"/>
</g>
</svg>
