<svg width="1280.000000pt" height="1280.000000pt" viewBox="110 -30 580.000000 580.000000"
 preserveAspectRatio="xMidYMid meet" xmlns="http://www.w3.org/2000/svg" 
xmlns:se="http://svg-edit.googlecode.com" 
xmlns:xlink="http://www.w3.org/1999/xlink" xmlns:dc="http://purl.org/dc/elements/1.1/" 
xmlns:cc="http://creativecommons.org/ns#" xmlns:rdf="http://www.w3.org/1999/02/22-rdf-syntax-ns#" 
xmlns:inkscape="http://www.inkscape.org/namespaces/inkscape">
<title>my vector image</title>
<!-- Created with Vector Paint - http://www.vectorpaint.yaks.com/ https://chrome.google.com/webstore/detail/hnbpdiengicdefcjecjbnjnoifekhgdo -->
 <g style="" class="currentLayer" fill="#1e656d"><title>Layer 1</title>
 <path fill="none" fill-opacity="1" stroke="#1e656d" 
 stroke-opacity="1" stroke-width="13" stroke-dasharray="none" stroke-linejoin="round" 
 stroke-linecap="butt"
  stroke-dashoffset="" fill-rule="nonzero" opacity="1" marker-start="" marker-mid="" 
  marker-end="" 
  d="M249,235 C249,114.55801104972376 315.23204419889504,17 397,17 C478.76795580110496,17 
  545,114.55801104972376 545,235 C545,355.44198895027625 478.76795580110496,453 397,453 
  C315.23204419889504,453 249,355.44198895027625 249,235 Z" id="svg_1"/>
  <path fill="none" stroke="#1e656d" style="color: rgb(0, 0, 0);" stroke-width="13" stroke-linejoin="round" 
  stroke-dashoffset="" fill-rule="nonzero" marker-start="" marker-mid="" marker-end="" id="svg_2" 
  d="M336.3910217285156,118.39497401738572 L336.3910217285156,118.39497401738572 
  C336.3910217285156,84.26485876228253 364.0588651099388,56.597015380859375 
  398.18889644171213,56.597015380859375 L398.18889644171213,56.597015380859375 
  C414.5808317435003,56.597015380859375 430.2979624382315,63.1077834950961 
  441.8862178927411,74.69716428516494 C453.4740766187824,86.28653363114336 
  459.98652701431274,102.00480110552417 459.98652701431274,118.39497401738572
   L459.98652701431274,118.39497401738572 C459.98652701431274,152.524906167042 
   432.3188667383365,180.19281058361412 398.18889644171213,180.19281058361412 
   L398.18889644171213,180.19281058361412 C364.0588651099388,180.19281058361412 
   336.3910217285156,152.524906167042 336.3910217285156,118.39497401738572 
   zM367.291408669902,118.39497401738572 L367.291408669902,118.39497401738572 
   C367.291408669902,135.45993627751704 381.125543983635,149.2939190033776 
   398.18889644171213,149.2939190033776 C415.2522183822148,149.2939190033776 
   429.08610955535187,135.45993627751704 429.08610955535187,
    118.39497401738572 C429.08610955535187,101.3296608051478 415.2522183822148,87.49589170230865 
    398.18889644171213,87.49589170230865 L398.18889644171213,87.49589170230865 
    C381.125543983635,87.49589170230865 367.291408669902,101.3296608051478 
    367.291408669902,118.39497401738572 z"/></g></svg>